<svg xmlns="http://www.w3.org/2000/svg" viewBox="0 0 620.35 640.63"><defs><style>.cls-1{fill:#740031;}.cls-1,.cls-2,.cls-3,.cls-4,.cls-5,.cls-6,.cls-7,.cls-8,.cls-9{stroke:#000;stroke-miterlimit:10;}.cls-2{fill:#b40056;}.cls-3{fill:#aa9e00;}.cls-4{fill:#dfdb00;}.cls-5{fill:none;}.cls-6{fill:#00e99e;}.cls-7{fill:#009f82;}.cls-8{fill:#18ff0a;}.cls-9{fill:#1c1f00;}</style></defs><title>backpack</title><g id="Layer_2" data-name="Layer 2"><g id="Layer_1-2" data-name="Layer 1"><path class="cls-1" d="M139.78,416.08c-27.3,42.42.41,92,6,102a114.39,114.39,0,0,0,11.81,17.25h0c3.14,13.44,6.77,26.19,10.74,38.23,4.58,13.91,9.59,26.86,14.77,38.81-18.32-5.63-38.39-14-56.88-27.36a146.72,146.72,0,0,1-32.45-31.95c-8.24-11.16-21.92-33.06-29-74-5.37-31-5.07-62.11-1.29-91.82,10.17-80.21,45.68-150.38,63.29-182.18q2.06-3.68,4.5-7.83c4.68,3.66,9.78,5.86,14.5,4.83,11.2-2.45,8.36-20.54,23-41,13.46-18.81,40.58-38.08,63-33a32.86,32.86,0,0,1,9.45,3.78,615.6,615.6,0,0,0-48.45,95.22c-14.29,35.42-34,85.55-42.54,147.42q-2.16,15.58-3.28,32.14A74.56,74.56,0,0,0,139.78,416.08Z"/><path class="cls-1" d="M293.55,59.84c-10.74,12.8-21.67,26.83-32.46,42.11-1.4-.69-2.84-1.32-4.31-1.87-13.15-4.93-26.86-3.13-39.6.8a294.41,294.41,0,0,1,39.6-24.8A323.43,323.43,0,0,1,293.55,59.84Z"/><path class="cls-2" d="M462.78,625.08c-41.55,13.26-75.13,15.45-98,15-42.79-.83-95.86-11.8-117.09-14.26-2.37-.27-10.93-1.2-23-3.56l-.9-.18a390.38,390.38,0,0,1-40.67-9.69c-5.18-11.95-10.19-24.9-14.77-38.81-4-12-7.6-24.79-10.74-38.23a126,126,0,0,0,39.08,31.25c24.3-5.63,29.82-6.16,32.1-12.52,7.59-21.14-45.19-37.58-51-84-4.75-38,26.34-60.6,13-81a23.39,23.39,0,0,0-6-6.24C171.91,387,158,394.27,147,406.64q1.09-16.56,3.28-32.14c8.54-61.87,28.25-112,42.54-147.42a615.6,615.6,0,0,1,48.45-95.22c14,8.22,20.53,24.37,33.55,22.22,9.06-1.5,14.2-10.7,16.92-14.88-6.46-17.14-17.05-30.53-30.61-37.25,10.79-15.28,21.72-29.31,32.46-42.11,92.09-34.15,212.68-34.25,278.23,37.24q3.35,3.65,6.35,7.38c20.56,25.47,43.1,68.63,41.65,149.62-1.21,67.77-17.47,66.19-25,140-10.27,100.66,17,132.93-9,174C571.21,591.12,539.6,617.4,462.78,625.08Z"/><path class="cls-3" d="M291.7,139.2c-2.72,4.18-7.86,13.38-16.92,14.88-13,2.15-19.57-14-33.55-22.22a32.86,32.86,0,0,0-9.45-3.78c-22.42-5.08-49.54,14.19-63,33-14.64,20.46-11.8,38.55-23,41-4.72,1-9.82-1.17-14.5-4.83a55.62,55.62,0,0,1-13.5-16.17A37.15,37.15,0,0,1,116,177a260.17,260.17,0,0,1,28.81-31.92c13.72-12.87,27.4-25.49,49-35a217.67,217.67,0,0,1,23.39-9.2h0c12.74-3.93,26.45-5.73,39.6-.8,1.47.55,2.91,1.18,4.31,1.87C274.65,108.67,285.24,122.06,291.7,139.2Z"/><path class="cls-4" d="M578.13,104.46c-7.42,17.65-20.91,32.13-33.35,32.62-9.58.38-16.3-7.62-22-13-55-51.86-199.51-33.17-231,15l-.08.12c-6.46-17.14-17.05-30.53-30.61-37.25-1.4-.69-2.84-1.32-4.31-1.87-13.15-4.93-26.86-3.13-39.6.8h0a217.67,217.67,0,0,0-23.39,9.2c-21.6,9.51-35.28,22.13-49,35A260.17,260.17,0,0,0,116,177a62.11,62.11,0,0,1-3.19-31.92c6.28-38.16,71.6-86.56,152-116,38.64-14.15,108.61-38.82,196-24,31.42,5.33,112.12,19,122,63C585.34,79.48,583.09,92.68,578.13,104.46Z"/><path class="cls-5" d="M465.78,61.08c-19-6.15-74-21.16-137,1a209.77,209.77,0,0,0-66.86,38.7l-1.17,1"/><path class="cls-6" d="M196.68,566.6c-7.5,1.73-16.79,4-28.34,7q-7.6,2-16.56,4.5c-10.64,3-18.8,5.42-25.55,6.95-10.6,2.41-17.72,2.59-25.45-.95-6.87-3.14-12.42-8.4-27-34-15.68-27.54-23.52-41.31-28-56-7.59-24.88-18.93-62.06,0-90a57.9,57.9,0,0,1,17.71-16.82c25.19-15.64,60.35-14,78.29-13.18,2.85.13,5.68.26,8.46.42,13.66.8,26.16,2.33,34.52,8.34C171.91,387,158,394.27,147,406.64a74.56,74.56,0,0,0-7.18,9.44c-27.3,42.42.41,92,6,102a114.39,114.39,0,0,0,11.81,17.25h0A126,126,0,0,0,196.68,566.6Z"/><path class="cls-7" d="M228.78,554.08c-2.28,6.36-7.8,6.89-32.1,12.52a126,126,0,0,1-39.08-31.25h0a114.39,114.39,0,0,1-11.81-17.25c-5.59-10-33.3-59.58-6-102a74.56,74.56,0,0,1,7.18-9.44c11.07-12.37,24.95-19.6,37.8-23.8a23.39,23.39,0,0,1,6,6.24c13.34,20.4-17.75,43-13,81C183.59,516.5,236.37,532.94,228.78,554.08Z"/><path class="cls-8" d="M6.78,466.08c-10.46-13.85-5.19-33.74-3-42,7.63-28.78,30.7-44.51,39-50,26.55-17.55,53-17.75,84-18,6-.05,69.33-.24,72,15,1.83,10.43-27.26,13.91-44,44-11.95,21.47-3.27,30.73-15,45-15,18.3-42.07,18.61-75,19C36.3,479.41,17,479.64,6.78,466.08Z"/><ellipse class="cls-9" cx="72.78" cy="478.58" rx="18" ry="11.5"/></g></g></svg>