<svg xmlns="http://www.w3.org/2000/svg" viewBox="0 0 131.82 219.14"><defs><style>.cls-1{fill:#ccc;}.cls-2{fill:#16211f;}</style></defs><title>rightHand</title><g id="Layer_2" data-name="Layer 2"><g id="Layer_1-2" data-name="Layer 1"><path class="cls-1" d="M105.31,19.81c2-2.47,6.58-5.44,8.93-1.59,1.86,3.05.73,7.53-.22,10.7A83.9,83.9,0,0,1,104.62,49c-7.42,11.94-16,23-22.45,35.61l-.79.57a23.21,23.21,0,0,0-8.67,11.36.26.26,0,0,0,.15.33c2.1-3.07,4-6.2,6.67-8.83a40.18,40.18,0,0,1,5.52-4.58q1-.69,2-1.32c2.79-1.75,5.69-3.29,8.6-4.79l.64-.44c8.18-5.66,16.94-11.52,26.39-14.61,3.5-1.14,6.7-.15,7.25,4.13.35,2.72-1.28,5.38-2.74,7.44a34.72,34.72,0,0,1-10.71,9.34c-3.95,2.37-8.33,3.82-12.39,6l-1.83,1c1.3-1.23,2.61-2.46,3.93-3.73-.86.58-1.72,1.18-2.57,1.79a56.79,56.79,0,0,0-5.41,4.4,10.35,10.35,0,0,0-1.56,1.48,47.64,47.64,0,0,0-3.74,4.15c-.91,1.11-1.75,2.26-2.58,3.44-5.93,11-7.27,24.28-15,34.16-2.63-5.52-9.07-7.75-14.71-7.74-.24,0-.21.37,0,.39,4.57.57,8.88,2.36,11.93,6,2.9,3.49,3.13,9.62-.39,12.52-.19-.85-.37-1.71-.57-2.56a1,1,0,0,0-.44-.64,13.85,13.85,0,0,0-4.33-6.77c-4.4-3.61-9.77-3.38-14.88-1.56-8,2.83-11,12.92-7.5,20.28.08.5.18,1,.28,1.5-.62-.28-1.7-.58-2-.73a11.13,11.13,0,0,1-4.27-4c-2-2.92-1.75-7.05-1.37-10.42A16.14,16.14,0,0,1,41.17,133c2.89-3.24,6.42-3.31,10.36-3.39.13,0,.12-.22,0-.22-4.92-.07-8.24.36-12,3.88a16.8,16.8,0,0,0-4.6,9.36c-9.51-11.46-6.42-28.06-15.71-39.6a27.86,27.86,0,0,0-8.57-6.7A31.81,31.81,0,0,0,5.78,94.2c-4.92-1.68-4.4-6.38-2.61-9.87,3-5.85,9.73-3.9,14.3-1.69S24.3,89.32,27.75,93c.11,1,.25,1.91.42,2.86a76.45,76.45,0,0,0,2.25,7.73c-.41-1.92-.68-3.84-1-5.78-1.15-7.8-.93-16-.67-23.84a.11.11,0,0,1,0-.06c-.23-5.7-.86-11.38-1.43-17-.87-5-2-10-3.24-15-1.85-7.4-6.4-16.14-2.58-23.47,3.21-6.14,11-3.67,14.57.48,4.51,5.26,5.26,14.46,5.62,21.12.45,8.16-.73,16.85-.6,25.29.15,1.43.17,2.88.23,4.32A27.2,27.2,0,0,0,42.09,74c.41,1.26.88,2.47,1.38,3.74.14.38.27.75.37,1.13a5.93,5.93,0,0,1,.24,1.87l.06,0a58,58,0,0,0-.73,8.49c0,.36.5.52.6.15.88-3,1-6.24,1.65-9.29a66.89,66.89,0,0,1,3.5-11.63c2.67-6.76,5.28-13.54,7.68-20.41a188.55,188.55,0,0,0,6.43-22.32c1.59-7.43,2.58-15.92,8.11-21.49C74.62,1,78.73,1.94,80.8,6c1.29,2.58,1.31,5.84,1.3,8.68a84.52,84.52,0,0,1-2.89,20.38A103.24,103.24,0,0,1,71,56.82c-.48.94-1,1.9-1.56,2.87s-1,2-1.48,3.06c-1.51,3.06-3.29,6.19-4.23,9.5-.46,1.61-.85,3.24-1.46,4.78l0,0c-.54,1.93-.87,3.89-1.65,6-.1.28.26.63.45.31,1.35-2.13,1.61-4.74,2.85-7a60.57,60.57,0,0,1,6.22-9.14c4.22-5.15,9-9.81,13.44-14.81a100.65,100.65,0,0,0,11.17-15C98.3,31.58,101,25.2,105.31,19.81Z"/><path d="M110.81,14.45c12.67-.25,2,23.91-.61,28.48-7.41,12.87-16.63,24.54-24,37.45a14.09,14.09,0,0,0-1.73,2.55l.1-.08.43.64a40.18,40.18,0,0,0-5.52,4.58C76.88,90.7,75,93.83,72.86,96.9a.26.26,0,0,1-.15-.33,23.21,23.21,0,0,1,8.67-11.36l.79-.57C88.58,72.05,97.2,61,104.62,49A83.9,83.9,0,0,0,114,28.92c1-3.17,2.08-7.65.22-10.7-2.35-3.85-6.92-.88-8.93,1.59-4.35,5.39-7,11.77-10.55,17.7a100.65,100.65,0,0,1-11.17,15c-4.41,5-9.22,9.66-13.44,14.81a60.57,60.57,0,0,0-6.22,9.14c-1.24,2.22-1.5,4.83-2.85,7-.19.32-.55,0-.45-.31.78-2.14,1.11-4.1,1.65-6l0,0c.61-1.54,1-3.17,1.46-4.78.94-3.31,2.72-6.44,4.23-9.5.49-1,1-2,1.48-3.06S70.5,57.76,71,56.82a103.24,103.24,0,0,0,8.23-21.73A84.52,84.52,0,0,0,82.1,14.71c0-2.84,0-6.1-1.3-8.68-2.07-4.09-6.18-5-9.42-1.76-5.53,5.57-6.52,14.06-8.11,21.49a188.55,188.55,0,0,1-6.43,22.32c-2.4,6.87-5,13.65-7.68,20.41a66.89,66.89,0,0,0-3.5,11.63c-.61,3-.77,6.31-1.65,9.29-.1.37-.61.21-.6-.15a58,58,0,0,1,.73-8.49l-.06,0a5.93,5.93,0,0,0-.24-1.87l.61-.13a.43.43,0,0,0,0,.11c2.65-14.09,9.56-27.14,13.66-41,2.55-8.65,3.48-18.09,6.7-26.49C66.7,6.5,69.82.59,75.49,0c4.76-.49,7.63,5.35,8.18,9.37a55,55,0,0,1-1.15,18.92c-1.78,8-4,16.24-7.52,23.67-2,4.29-4.44,8.38-6.57,12.63-1,1.89-2.08,4-3.06,6.11A60.11,60.11,0,0,1,71,63.6c5.5-6,11.27-11.91,16.28-18.42,5.28-6.87,8.62-14.62,13.28-21.86C102.79,19.81,106.15,14.54,110.81,14.45Z"/><path class="cls-2" d="M127.82,59.16a8.41,8.41,0,0,1,3.39,2.6c1.43,3.78.14,8.44-1.79,12.16-2.77,5.29-7.63,9-12.62,11.89-4.46,2.53-9.29,3.93-13.92,6-2.63,1.16-5.55,2.75-7,5.33a1.52,1.52,0,0,1-.2-.06,59.81,59.81,0,0,0-9.65,19.38c-2.31,7.65-4.79,15.16-9.86,21.37A1.29,1.29,0,0,1,76,138c.87,3.67.84,10.94-3.49,11.07,1.09,5.22,2,10.43,3.53,15.6,1.82,6.41,3.92,13,4.35,19.67.78,12-1.75,22.54-12.49,28.57-10.36,5.81-21.78,8-33.22,4.66-.74-.22-1.5-.47-2.26-.73a16.42,16.42,0,0,1-2.49-.94,44.55,44.55,0,0,1-6.76-3.4,43.92,43.92,0,0,1-5.78-4,46,46,0,0,1-3.49-3.1l.18-.2a1.94,1.94,0,0,0,1.18.72,24.11,24.11,0,0,0,4.83,3.89,35.94,35.94,0,0,0,5.75,2.89l.63.42a43.55,43.55,0,0,0,14,3.27,45,45,0,0,0,28-7.9c10.24-7,11-21.65,8.43-33-.31-1.35-.63-2.69-1-4s-.6-2.93-.93-4.39c-1.57-7-2.77-14.14-4.69-21,0,0,0-.08,0-.14-.63-3.09-3.08-6.69-6.13-7.61a13.27,13.27,0,0,0-13.31.43c-5.09,3-7.86,8.42-6.94,13.95a.58.58,0,0,1,.2-.42A16.51,16.51,0,0,0,45,155.6l-.6.21c-3.5-7.36-.46-17.45,7.5-20.28,5.11-1.82,10.48-2.05,14.88,1.56a13.85,13.85,0,0,1,4.33,6.77,1,1,0,0,1,.44.64c.2.85.38,1.71.57,2.56,3.52-2.9,3.29-9,.39-12.52-3-3.67-7.36-5.46-11.93-6-.22,0-.25-.4,0-.39,5.64,0,12.08,2.22,14.71,7.74,7.77-9.88,9.11-23.17,15-34.16.83-1.18,1.67-2.33,2.58-3.44a47.64,47.64,0,0,1,3.74-4.15,10.35,10.35,0,0,1,1.56-1.48,56.79,56.79,0,0,1,5.41-4.4c.85-.61,1.71-1.21,2.57-1.79-1.32,1.27-2.63,2.5-3.93,3.73l1.83-1c4.06-2.16,8.44-3.61,12.39-6a34.72,34.72,0,0,0,10.71-9.34c1.46-2.06,3.09-4.72,2.74-7.44-.55-4.28-3.75-5.27-7.25-4.13-9.45,3.09-18.21,9-26.39,14.61l-.64.44c-2.91,1.5-5.81,3-8.6,4.79q-1,.63-2,1.32l-.43-.64c4.47-3.21,9-6.32,13.52-9.49a144.49,144.49,0,0,1,17.49-10.62C118.55,61.25,124.47,57.63,127.82,59.16Z"/><path class="cls-2" d="M54,191.55a1.11,1.11,0,0,0,.19-.27.44.44,0,0,0-.15-.59c.07-4.74-1.86-10-3.21-14.19-1.9-5.86-4.34-11.58-5.77-17.58-1.74.57-4.58-.93-5.67-1.9a13.75,13.75,0,0,1-4.83-11.36c.06-.64.13-1.29.22-1.93-7-5.48-8.38-15.07-10.1-23.41-1.18-5.71-2.54-11.76-6.49-16.2-4.31-4.83-9.36-6.57-14.94-9.21C-3.1,91.94,1,81.23,6.14,79.35c4.47-1.62,9.13.1,13.1,2.42,3.7,2.16,5.92,5.74,8.32,9.22-.21-2.78-.22-5.56-.18-8.41A143.69,143.69,0,0,0,25.07,53.3c-1.73-9-4.81-17.78-6.48-26.78-.82-4.4.81-10.58,5.1-12.6,11.22-5.32,17.57,9,18.94,18C45,47.56,41.09,63.27,44.45,78.75l-.61.13c-.1-.38-.23-.75-.37-1.13-.5-1.27-1-2.48-1.38-3.74a27.2,27.2,0,0,1-.71-4.41c-.06-1.44-.08-2.89-.23-4.32C41,56.84,42.2,48.15,41.75,40c-.36-6.66-1.11-15.86-5.62-21.12-3.55-4.15-11.36-6.62-14.57-.48-3.82,7.33.73,16.07,2.58,23.47,1.24,5,2.37,10,3.24,15,.57,5.67,1.2,11.35,1.43,17a.11.11,0,0,0,0,.06c-.26,7.86-.48,16,.67,23.84.28,1.94.55,3.86,1,5.78a76.45,76.45,0,0,1-2.25-7.73c-.17-1-.31-1.91-.42-2.86-3.45-3.68-5.57-8.08-10.28-10.36S6.16,78.48,3.17,84.33C1.38,87.82.86,92.52,5.78,94.2a31.81,31.81,0,0,1,4.88,2.08,27.86,27.86,0,0,1,8.57,6.7c9.29,11.54,6.2,28.14,15.71,39.6a16.8,16.8,0,0,1,4.6-9.36c3.75-3.52,7.07-3.95,12-3.88.12,0,.13.22,0,.22-3.94.08-7.47.15-10.36,3.39A16.14,16.14,0,0,0,37,142.14c-.38,3.37-.59,7.5,1.37,10.42a11.13,11.13,0,0,0,4.27,4c.32.15,1.4.45,2,.73-.1-.5-.2-1-.28-1.5l.6-.21c.68,2,1.61,4,2.21,5.73,1.64,4.8,3,9.66,5.18,14.21.42,1.25.82,2.51,1.19,3.77a.42.42,0,0,0,0,.3c1.05,3.67,2.15,7.35,2.14,11.22,0,3.72-2.34,7.7-5.87,8.62a9.87,9.87,0,0,0,4-6.5c-8,6.13-21.81.46-30.54-.08-2.72-.17-6.13-.54-8.81.13a7.87,7.87,0,0,0-1.28.46l-.36.18-.05,0a4.09,4.09,0,0,0-2,2.73c-.46,1.88.39,3.91,1.22,5.52a15.62,15.62,0,0,0,2.18,3.28l-.18.2c-3.41-3.4-6.4-7.84-3.74-12.38,1.13-1.92,4-2.3,5.91-2.31a77.47,77.47,0,0,1,12.9.93c5.8.94,11.42,2.08,17,1.55a22.43,22.43,0,0,0,5-.51A7,7,0,0,0,54,191.55Z"/></g></g></svg>