<svg xmlns="http://www.w3.org/2000/svg" xmlns:xlink="http://www.w3.org/1999/xlink" viewBox="0 0 408.17 494.71"><defs><style>.cls-1{fill:url(#Áåçûìÿííûé_ãðàäèåíò_354);}.cls-2{fill:url(#Áåçûìÿííûé_ãðàäèåíò_346);}.cls-3{fill:url(#Áåçûìÿííûé_ãðàäèåíò_67);}.cls-4{fill:#8b1e64;}.cls-5{fill:#fff;}.cls-6{fill:url(#Áåçûìÿííûé_ãðàäèåíò_354-2);}.cls-7{fill:url(#Áåçûìÿííûé_ãðàäèåíò_346-2);}.cls-8{fill:url(#Áåçûìÿííûé_ãðàäèåíò_67-2);}.cls-9{fill:url(#Áåçûìÿííûé_ãðàäèåíò_354-3);}.cls-10{fill:url(#Áåçûìÿííûé_ãðàäèåíò_346-3);}.cls-11{fill:url(#Áåçûìÿííûé_ãðàäèåíò_67-3);}.cls-12{fill:#231f20;}.cls-13{fill:#d96282;}.cls-14{fill:none;stroke:#231f20;stroke-linecap:round;stroke-linejoin:round;stroke-width:3.9px;}</style><linearGradient id="Áåçûìÿííûé_ãðàäèåíò_354" x1="-24.54" y1="376.42" x2="263.29" y2="376.42" gradientUnits="userSpaceOnUse"><stop offset="0" stop-color="#01c8ef"/><stop offset="0.13" stop-color="#04b1dd"/><stop offset="0.55" stop-color="#0e6ba7"/><stop offset="0.85" stop-color="#154085"/><stop offset="1" stop-color="#172f78"/></linearGradient><radialGradient id="Áåçûìÿííûé_ãðàäèåíò_346" cx="1280.95" cy="207.28" r="145.66" gradientTransform="translate(-5728.26 -755.1) scale(4.41 4.42)" gradientUnits="userSpaceOnUse"><stop offset="0" stop-color="#01c8ef"/><stop offset="0.14" stop-color="#03bae4"/><stop offset="0.4" stop-color="#0895c8"/><stop offset="0.76" stop-color="#115a9a"/><stop offset="1" stop-color="#172f78"/></radialGradient><radialGradient id="Áåçûìÿííûé_ãðàäèåíò_67" cx="1293.8" cy="216.06" r="100.14" gradientTransform="translate(-5728.26 -755.1) scale(4.41 4.42)" gradientUnits="userSpaceOnUse"><stop offset="0" stop-color="#f9636b"/><stop offset="1" stop-color="#b6246e"/></radialGradient><linearGradient id="Áåçûìÿííûé_ãðàäèåíò_354-2" x1="-24.54" y1="288.42" x2="263.29" y2="288.42" xlink:href="#Áåçûìÿííûé_ãðàäèåíò_354"/><radialGradient id="Áåçûìÿííûé_ãðàäèåíò_346-2" cx="1280.95" cy="187.36" r="145.66" xlink:href="#Áåçûìÿííûé_ãðàäèåíò_346"/><radialGradient id="Áåçûìÿííûé_ãðàäèåíò_67-2" cx="1293.8" cy="196.13" r="100.14" xlink:href="#Áåçûìÿííûé_ãðàäèåíò_67"/><linearGradient id="Áåçûìÿííûé_ãðàäèåíò_354-3" x1="-24.54" y1="200.42" x2="263.29" y2="200.42" xlink:href="#Áåçûìÿííûé_ãðàäèåíò_354"/><radialGradient id="Áåçûìÿííûé_ãðàäèåíò_346-3" cx="1280.95" cy="167.43" r="145.66" xlink:href="#Áåçûìÿííûé_ãðàäèåíò_346"/><radialGradient id="Áåçûìÿííûé_ãðàäèåíò_67-3" cx="1293.8" cy="176.21" r="100.14" xlink:href="#Áåçûìÿííûé_ãðàäèåíò_67"/></defs><title>server</title><g id="Layer_2" data-name="Layer 2"><g id="Layer_1-2" data-name="Layer 1"><path class="cls-1" d="M408.17,376.33h0l0-81.53L305.2,308.55,228.12,264c-13.52-7.81-35.44-7.81-49,0l-12,7.64L0,294v83H.08c.19,5,3.5,9.91,10.06,13.7l169.91,98.19c13.52,7.81,35.44,7.81,49,0l169-98.37c6.54-3.78,9.85-8.7,10.06-13.66h.08Z"/><path class="cls-2" d="M398,280,228.12,181.86c-13.52-7.81-35.44-7.81-49,0l-169,98.37c-13.52,7.81-13.52,20.47,0,28.29L180.05,406.7c13.52,7.81,35.44,7.81,49,0l169-98.36C411.55,300.52,411.55,287.86,398,280Z"/><path class="cls-3" d="M398,280,228.12,181.86c-13.52-7.81-35.44-7.81-49,0l-169,98.37c-13.52,7.81-13.52,20.47,0,28.29L180.05,406.7c13.52,7.81,35.44,7.81,49,0l169-98.36C411.55,300.52,411.55,287.86,398,280Z"/><path class="cls-4" d="M204.38,374.89a35.22,35.22,0,0,1-17.32-4.21L74.48,305.63c-5-2.92-7.82-6.92-7.82-11.29s2.77-8.37,7.82-11.28l112-65.18c9.72-5.61,24.94-5.61,34.65,0l112.58,65.06c5,2.91,7.82,6.92,7.82,11.28s-2.78,8.37-7.82,11.28l-112,65.18A35.26,35.26,0,0,1,204.38,374.89Zm-.59-156.8a31,31,0,0,0-15.12,3.61l-112,65.18c-3.62,2.1-5.62,4.74-5.62,7.46s2,5.37,5.61,7.46l112.59,65.06c8.33,4.82,21.89,4.82,30.23,0l112-65.18c3.63-2.09,5.62-4.74,5.62-7.46s-2-5.37-5.61-7.46L218.91,221.7A31,31,0,0,0,203.79,218.09Z"/><path class="cls-5" d="M398,303.39,229,401.76c-13.52,7.81-35.44,7.81-49,0L10.14,303.58C4.47,300.3,1.21,296.17.3,291.9c-1.27,5.91,2,12.08,9.84,16.62L180.05,406.7c13.52,7.81,35.44,7.81,49,0l169-98.36c7.85-4.54,11.11-10.71,9.84-16.62C407,296,403.7,300.12,398,303.39Z"/><polygon class="cls-5" points="251.86 428.46 243.81 433.11 243.81 423.82 251.86 419.17 251.86 428.46"/><polygon class="cls-5" points="268.69 418.74 260.64 423.39 260.64 414.09 268.69 409.44 268.69 418.74"/><polygon class="cls-5" points="285.51 409.02 277.47 413.66 277.47 404.37 285.51 399.72 285.51 409.02"/><polygon class="cls-5" points="271.75 435.8 263.71 440.45 263.71 431.16 271.75 426.51 271.75 435.8"/><polygon class="cls-5" points="286.57 427.24 278.53 431.89 278.53 422.59 286.57 417.94 286.57 427.24"/><polygon class="cls-5" points="339.49 377.82 331.45 382.47 331.45 373.18 339.49 368.53 339.49 377.82"/><polygon class="cls-5" points="385.85 351.04 377.8 355.69 377.8 346.39 385.85 341.74 385.85 351.04"/><polygon class="cls-5" points="302.34 399.29 294.3 403.94 294.3 394.64 302.34 390 302.34 399.29"/><path class="cls-6" d="M408.17,288.33h0l0-81.53L305.2,220.55,228.12,176c-13.52-7.81-35.44-7.81-49,0l-12,7.64L0,206v83H.08c.19,5,3.5,9.91,10.06,13.7l169.91,98.19c13.52,7.81,35.44,7.81,49,0l169-98.37c6.54-3.78,9.85-8.7,10.06-13.66h.08Z"/><path class="cls-7" d="M398,192,228.12,93.86c-13.52-7.81-35.44-7.81-49,0l-169,98.37c-13.52,7.81-13.52,20.47,0,28.29L180.05,318.7c13.52,7.81,35.44,7.81,49,0l169-98.36C411.55,212.52,411.55,199.86,398,192Z"/><path class="cls-8" d="M398,192,228.12,93.86c-13.52-7.81-35.44-7.81-49,0l-169,98.37c-13.52,7.81-13.52,20.47,0,28.29L180.05,318.7c13.52,7.81,35.44,7.81,49,0l169-98.36C411.55,212.52,411.55,199.86,398,192Z"/><path class="cls-4" d="M204.38,286.89a35.22,35.22,0,0,1-17.32-4.21L74.48,217.63c-5-2.92-7.82-6.92-7.82-11.29s2.77-8.37,7.82-11.28l112-65.18c9.72-5.61,24.94-5.61,34.65,0l112.58,65.06c5,2.91,7.82,6.92,7.82,11.28s-2.78,8.37-7.82,11.28l-112,65.18A35.26,35.26,0,0,1,204.38,286.89Zm-.59-156.8a31,31,0,0,0-15.12,3.61l-112,65.18c-3.62,2.1-5.62,4.74-5.62,7.46s2,5.37,5.61,7.46l112.59,65.06c8.33,4.82,21.89,4.82,30.23,0l112-65.18c3.63-2.09,5.62-4.74,5.62-7.46s-2-5.37-5.61-7.46L218.91,133.7A31,31,0,0,0,203.79,130.09Z"/><path class="cls-5" d="M398,215.39,229,313.76c-13.52,7.81-35.44,7.81-49,0L10.14,215.58C4.47,212.3,1.21,208.17.3,203.9c-1.27,5.91,2,12.08,9.84,16.62L180.05,318.7c13.52,7.81,35.44,7.81,49,0l169-98.36c7.85-4.54,11.11-10.71,9.84-16.62C407,208,403.7,212.12,398,215.39Z"/><polygon class="cls-5" points="251.86 340.46 243.81 345.11 243.81 335.82 251.86 331.17 251.86 340.46"/><polygon class="cls-5" points="268.69 330.74 260.64 335.39 260.64 326.09 268.69 321.44 268.69 330.74"/><polygon class="cls-5" points="285.51 321.02 277.47 325.66 277.47 316.37 285.51 311.72 285.51 321.02"/><polygon class="cls-5" points="271.75 347.8 263.71 352.45 263.71 343.16 271.75 338.51 271.75 347.8"/><polygon class="cls-5" points="286.57 339.24 278.53 343.89 278.53 334.59 286.57 329.94 286.57 339.24"/><polygon class="cls-5" points="339.49 289.82 331.45 294.47 331.45 285.18 339.49 280.53 339.49 289.82"/><polygon class="cls-5" points="385.85 263.04 377.8 267.69 377.8 258.39 385.85 253.74 385.85 263.04"/><polygon class="cls-5" points="302.34 311.29 294.3 315.94 294.3 306.64 302.34 302 302.34 311.29"/><path class="cls-9" d="M408.17,200.33h0l0-81.53L305.2,132.55,228.12,88c-13.52-7.81-35.44-7.81-49,0l-12,7.64L0,118v83H.08c.19,5,3.5,9.91,10.06,13.7l169.91,98.19c13.52,7.81,35.44,7.81,49,0l169-98.37c6.54-3.78,9.85-8.7,10.06-13.66h.08Z"/><path class="cls-10" d="M398,104,228.12,5.86c-13.52-7.81-35.44-7.81-49,0l-169,98.37c-13.52,7.81-13.52,20.47,0,28.29L180.05,230.7c13.52,7.81,35.44,7.81,49,0l169-98.36C411.55,124.52,411.55,111.86,398,104Z"/><path class="cls-11" d="M398,104,228.12,5.86c-13.52-7.81-35.44-7.81-49,0l-169,98.37c-13.52,7.81-13.52,20.47,0,28.29L180.05,230.7c13.52,7.81,35.44,7.81,49,0l169-98.36C411.55,124.52,411.55,111.86,398,104Z"/><path class="cls-4" d="M204.38,198.89a35.22,35.22,0,0,1-17.32-4.21L74.48,129.63c-5-2.92-7.82-6.92-7.82-11.29s2.77-8.37,7.82-11.28l112-65.18c9.72-5.61,24.94-5.61,34.65,0l112.58,65.06c5,2.91,7.82,6.92,7.82,11.28s-2.78,8.37-7.82,11.28l-112,65.18A35.26,35.26,0,0,1,204.38,198.89Zm-.59-156.8a31,31,0,0,0-15.12,3.61l-112,65.18c-3.62,2.1-5.62,4.74-5.62,7.46s2,5.37,5.61,7.46l112.59,65.06c8.33,4.82,21.89,4.82,30.23,0l112-65.18c3.63-2.09,5.62-4.74,5.62-7.46s-2-5.37-5.61-7.46L218.91,45.7A31,31,0,0,0,203.79,42.09Z"/><path class="cls-5" d="M398,127.39,229,225.76c-13.52,7.81-35.44,7.81-49,0L10.14,127.58C4.47,124.3,1.21,120.17.3,115.9c-1.27,5.91,2,12.08,9.84,16.62L180.05,230.7c13.52,7.81,35.44,7.81,49,0l169-98.36c7.85-4.54,11.11-10.71,9.84-16.62C407,120,403.7,124.12,398,127.39Z"/><polygon class="cls-5" points="251.86 252.47 243.81 257.11 243.81 247.82 251.86 243.17 251.86 252.47"/><polygon class="cls-5" points="268.69 242.74 260.64 247.39 260.64 238.09 268.69 233.44 268.69 242.74"/><polygon class="cls-5" points="285.51 233.02 277.47 237.66 277.47 228.37 285.51 223.72 285.51 233.02"/><polygon class="cls-5" points="271.75 259.8 263.71 264.45 263.71 255.16 271.75 250.51 271.75 259.8"/><polygon class="cls-5" points="286.57 251.24 278.53 255.89 278.53 246.59 286.57 241.94 286.57 251.24"/><polygon class="cls-5" points="339.49 201.82 331.45 206.47 331.45 197.18 339.49 192.53 339.49 201.82"/><polygon class="cls-5" points="385.85 175.04 377.8 179.69 377.8 170.39 385.85 165.74 385.85 175.04"/><polygon class="cls-5" points="302.34 223.29 294.3 227.94 294.3 218.64 302.34 214 302.34 223.29"/><ellipse class="cls-12" cx="259.42" cy="302.24" rx="18.2" ry="39.16" transform="translate(-2.03 1.75) rotate(-0.39)"/><path class="cls-5" d="M272,282.36c.78,9.18-1.95,17.86-6.1,19.39s-8.14-4.68-8.92-13.86S259,270,263.11,268.5,271.25,273.18,272,282.36Z"/><path class="cls-5" d="M255.08,299.54c.29,3.32-.7,6.46-2.2,7s-2.95-1.69-3.23-5,.71-6.46,2.21-7S254.8,296.22,255.08,299.54Z"/><path class="cls-5" d="M264.58,311.14c.28,3.32-.7,6.46-2.2,7s-2.95-1.69-3.23-5,.71-6.47,2.21-7S264.3,307.81,264.58,311.14Z"/><ellipse class="cls-12" cx="378.59" cy="258.38" rx="18.2" ry="39.16" transform="translate(-1.73 2.56) rotate(-0.39)"/><path class="cls-5" d="M391.2,238.5c.78,9.18-2,17.86-6.1,19.39S377,253.21,376.18,244s2-17.86,6.1-19.39S390.42,229.32,391.2,238.5Z"/><path class="cls-5" d="M374.25,255.68c.28,3.32-.7,6.46-2.21,7s-2.94-1.69-3.22-5,.71-6.47,2.21-7S374,252.36,374.25,255.68Z"/><path class="cls-5" d="M383.75,267.28c.28,3.32-.7,6.46-2.21,7s-2.94-1.69-3.22-5,.71-6.47,2.21-7S383.47,264,383.75,267.28Z"/><path class="cls-13" d="M269.21,340.39c.35,4.12-6.09,9.94-14.38,13s-15.31,2.19-15.65-1.94,6.09-9.94,14.38-13S268.86,336.26,269.21,340.39Z"/><path class="cls-13" d="M405.69,290.16c.35,4.12-6.1,9.94-14.39,13s-15.3,2.19-15.65-1.94,6.09-9.94,14.38-13S405.34,286,405.69,290.16Z"/><path class="cls-14" d="M250.83,249.3s-15.14,2-17.45,20.35"/><path class="cls-14" d="M375.54,203.4s14.56-8.89,19.74,6.66"/><path class="cls-5" d="M326.06,354.55c-18,6.62-33.86-2.44-35.37-20.21-.62-7.39,1.72-12,7.16-14a40.38,40.38,0,0,1,9.4-1.67,62,62,0,0,0,15.51-3.08c5.53-2,10.61-5.3,15.08-8.18,3.49-2.24,6.5-4.18,9.12-5.14,5.44-2,8.39.62,9,8C357.48,328.08,344.06,347.93,326.06,354.55Z"/><path class="cls-12" d="M347.15,304.6c3.81-1.4,6.23-.24,6.8,6.46,1.4,16.53-11.17,35-28.08,41.2s-31.75-2.13-33.15-18.66c-.57-6.7,1.52-9.53,5.32-10.93,5.59-2.05,14.87-1.05,24.92-4.75s18.61-11.27,24.19-13.32m-.39-4.58h0c-2.84,1-5.95,3.05-9.56,5.36-4.37,2.82-9.33,6-14.63,8a60.4,60.4,0,0,1-15.05,3,41.58,41.58,0,0,0-9.86,1.78c-3.78,1.39-10,5.45-9,17,1.61,19,18.47,28.78,37.58,21.75S359.6,328.6,358,309.57c-1-11.55-7.45-10.94-11.23-9.55Z"/><path class="cls-12" d="M291.83,331.06c-.06.61,2.89,2.36,3.31,2.65A16.33,16.33,0,0,0,300,336a22.49,22.49,0,0,0,3.95.68,23.37,23.37,0,0,1,2.62.28,23.22,23.22,0,0,1-14.65,2C291.06,338.79,291.83,331.06,291.83,331.06Z"/><path class="cls-12" d="M354.1,308.14c.15.54-2.33,4.28-2.68,4.85a36.35,36.35,0,0,1-4.18,5.61,41.84,41.84,0,0,1-3.6,3.46c-.78.67-1.73,1.43-2.41,2.13a31.82,31.82,0,0,0,14.09-8.55C356.09,314.85,354.1,308.15,354.1,308.14Z"/><path class="cls-12" d="M312.64,336.78s.19-.13.53-.33.79-.46,1.36-.75,1.22-.58,1.91-.87,1.44-.58,2.19-.83c.38-.11.74-.26,1.11-.37s.73-.23,1.08-.33c.69-.22,1.35-.4,1.92-.52l.77-.2.62-.14c.34-.07.55-.09.55-.09s-.17.18-.47.46c-.14.13-.33.3-.55.48s-.46.4-.73.59c-.55.37-1.21.77-1.92,1.15a23.46,23.46,0,0,1-2.24.94,17.87,17.87,0,0,1-2.26.62,13.17,13.17,0,0,1-2,.27,8.71,8.71,0,0,1-1.38,0A3,3,0,0,1,312.64,336.78Z"/></g></g></svg>