<svg xmlns="http://www.w3.org/2000/svg" xmlns:xlink="http://www.w3.org/1999/xlink" viewBox="0 0 417.8 494.71"><defs><style>.cls-1{fill:url(#Áåçûìÿííûé_ãðàäèåíò_354);}.cls-2{fill:url(#Áåçûìÿííûé_ãðàäèåíò_346);}.cls-3{fill:url(#Áåçûìÿííûé_ãðàäèåíò_67);}.cls-4{fill:#8b1e64;}.cls-5{fill:#fff;}.cls-6{fill:url(#Áåçûìÿííûé_ãðàäèåíò_354-2);}.cls-7{fill:url(#Áåçûìÿííûé_ãðàäèåíò_346-2);}.cls-8{fill:url(#Áåçûìÿííûé_ãðàäèåíò_67-2);}.cls-9{fill:url(#Áåçûìÿííûé_ãðàäèåíò_354-3);}.cls-10{fill:url(#Áåçûìÿííûé_ãðàäèåíò_346-3);}.cls-11{fill:url(#Áåçûìÿííûé_ãðàäèåíò_67-3);}.cls-12{fill:#d96282;}.cls-13,.cls-16{fill:none;stroke:#231f20;stroke-linecap:round;stroke-linejoin:round;}.cls-13{stroke-width:4.51px;}.cls-14{fill:#231f20;}.cls-15{fill:#25a9e0;}.cls-16{stroke-width:7.3px;}</style><linearGradient id="Áåçûìÿííûé_ãðàäèåíò_354" x1="-24.54" y1="376.42" x2="263.29" y2="376.42" gradientUnits="userSpaceOnUse"><stop offset="0" stop-color="#01c8ef"/><stop offset="0.13" stop-color="#04b1dd"/><stop offset="0.55" stop-color="#0e6ba7"/><stop offset="0.85" stop-color="#154085"/><stop offset="1" stop-color="#172f78"/></linearGradient><radialGradient id="Áåçûìÿííûé_ãðàäèåíò_346" cx="171.91" cy="-324.95" r="145.66" gradientTransform="translate(-834.18 1595.62) scale(4.41 4.42)" gradientUnits="userSpaceOnUse"><stop offset="0" stop-color="#01c8ef"/><stop offset="0.14" stop-color="#03bae4"/><stop offset="0.4" stop-color="#0895c8"/><stop offset="0.76" stop-color="#115a9a"/><stop offset="1" stop-color="#172f78"/></radialGradient><radialGradient id="Áåçûìÿííûé_ãðàäèåíò_67" cx="184.76" cy="-316.17" r="100.14" gradientTransform="translate(-834.18 1595.62) scale(4.41 4.42)" gradientUnits="userSpaceOnUse"><stop offset="0" stop-color="#f9636b"/><stop offset="1" stop-color="#b6246e"/></radialGradient><linearGradient id="Áåçûìÿííûé_ãðàäèåíò_354-2" x1="-24.54" y1="288.42" x2="263.29" y2="288.42" xlink:href="#Áåçûìÿííûé_ãðàäèåíò_354"/><radialGradient id="Áåçûìÿííûé_ãðàäèåíò_346-2" cx="171.91" cy="-344.87" r="145.66" xlink:href="#Áåçûìÿííûé_ãðàäèåíò_346"/><radialGradient id="Áåçûìÿííûé_ãðàäèåíò_67-2" cx="184.76" cy="-336.1" r="100.14" xlink:href="#Áåçûìÿííûé_ãðàäèåíò_67"/><linearGradient id="Áåçûìÿííûé_ãðàäèåíò_354-3" x1="-24.54" y1="200.42" x2="263.29" y2="200.42" xlink:href="#Áåçûìÿííûé_ãðàäèåíò_354"/><radialGradient id="Áåçûìÿííûé_ãðàäèåíò_346-3" cx="171.91" cy="-364.8" r="145.66" xlink:href="#Áåçûìÿííûé_ãðàäèåíò_346"/><radialGradient id="Áåçûìÿííûé_ãðàäèåíò_67-3" cx="184.76" cy="-356.02" r="100.14" xlink:href="#Áåçûìÿííûé_ãðàäèåíò_67"/></defs><title>server-4</title><g id="Layer_2" data-name="Layer 2"><g id="Layer_1-2" data-name="Layer 1"><path class="cls-1" d="M408.17,376.33h0l0-81.53L305.2,308.55,228.12,264c-13.52-7.81-35.44-7.81-49,0l-12,7.64L0,294v83H.08c.19,5,3.5,9.91,10.06,13.7l169.91,98.19c13.52,7.81,35.44,7.81,49,0l169-98.37c6.54-3.78,9.85-8.7,10.06-13.66h.08Z"/><path class="cls-2" d="M398,280,228.12,181.86c-13.52-7.81-35.44-7.81-49,0l-169,98.37c-13.52,7.81-13.52,20.47,0,28.29L180.05,406.7c13.52,7.81,35.44,7.81,49,0l169-98.36C411.55,300.52,411.55,287.86,398,280Z"/><path class="cls-3" d="M398,280,228.12,181.86c-13.52-7.81-35.44-7.81-49,0l-169,98.37c-13.52,7.81-13.52,20.47,0,28.29L180.05,406.7c13.52,7.81,35.44,7.81,49,0l169-98.36C411.55,300.52,411.55,287.86,398,280Z"/><path class="cls-4" d="M204.38,374.89a35.22,35.22,0,0,1-17.32-4.21L74.48,305.63c-5-2.92-7.82-6.92-7.82-11.29s2.77-8.37,7.82-11.28l112-65.18c9.72-5.61,24.94-5.61,34.65,0l112.58,65.06c5,2.91,7.82,6.92,7.82,11.28s-2.78,8.37-7.82,11.28l-112,65.18A35.26,35.26,0,0,1,204.38,374.89Zm-.59-156.8a31,31,0,0,0-15.12,3.61l-112,65.18c-3.62,2.1-5.62,4.74-5.62,7.46s2,5.37,5.61,7.46l112.59,65.06c8.33,4.82,21.89,4.82,30.23,0l112-65.18c3.63-2.09,5.62-4.74,5.62-7.46s-2-5.37-5.61-7.46L218.91,221.7A31,31,0,0,0,203.79,218.09Z"/><path class="cls-5" d="M398,303.39,229,401.76c-13.52,7.81-35.44,7.81-49,0L10.14,303.58C4.47,300.3,1.21,296.17.3,291.9c-1.27,5.91,2,12.08,9.84,16.62L180.05,406.7c13.52,7.81,35.44,7.81,49,0l169-98.36c7.85-4.54,11.11-10.71,9.84-16.62C407,296,403.7,300.12,398,303.39Z"/><polygon class="cls-5" points="251.86 428.46 243.81 433.11 243.81 423.82 251.86 419.17 251.86 428.46"/><polygon class="cls-5" points="268.69 418.74 260.64 423.39 260.64 414.09 268.69 409.44 268.69 418.74"/><polygon class="cls-5" points="285.51 409.02 277.47 413.66 277.47 404.37 285.51 399.72 285.51 409.02"/><polygon class="cls-5" points="271.75 435.8 263.71 440.45 263.71 431.16 271.75 426.51 271.75 435.8"/><polygon class="cls-5" points="286.57 427.24 278.53 431.89 278.53 422.59 286.57 417.94 286.57 427.24"/><polygon class="cls-5" points="339.49 377.82 331.45 382.47 331.45 373.18 339.49 368.53 339.49 377.82"/><polygon class="cls-5" points="385.85 351.04 377.8 355.69 377.8 346.39 385.85 341.74 385.85 351.04"/><polygon class="cls-5" points="302.34 399.29 294.3 403.94 294.3 394.64 302.34 390 302.34 399.29"/><path class="cls-6" d="M408.17,288.33h0l0-81.53L305.2,220.55,228.12,176c-13.52-7.81-35.44-7.81-49,0l-12,7.64L0,206v83H.08c.19,5,3.5,9.91,10.06,13.7l169.91,98.19c13.52,7.81,35.44,7.81,49,0l169-98.37c6.54-3.78,9.85-8.7,10.06-13.66h.08Z"/><path class="cls-7" d="M398,192,228.12,93.86c-13.52-7.81-35.44-7.81-49,0l-169,98.37c-13.52,7.81-13.52,20.47,0,28.29L180.05,318.7c13.52,7.81,35.44,7.81,49,0l169-98.36C411.55,212.52,411.55,199.86,398,192Z"/><path class="cls-8" d="M398,192,228.12,93.86c-13.52-7.81-35.44-7.81-49,0l-169,98.37c-13.52,7.81-13.52,20.47,0,28.29L180.05,318.7c13.52,7.81,35.44,7.81,49,0l169-98.36C411.55,212.52,411.55,199.86,398,192Z"/><path class="cls-4" d="M204.38,286.89a35.22,35.22,0,0,1-17.32-4.21L74.48,217.63c-5-2.92-7.82-6.92-7.82-11.29s2.77-8.37,7.82-11.28l112-65.18c9.72-5.61,24.94-5.61,34.65,0l112.58,65.06c5,2.91,7.82,6.92,7.82,11.28s-2.78,8.37-7.82,11.28l-112,65.18A35.26,35.26,0,0,1,204.38,286.89Zm-.59-156.8a31,31,0,0,0-15.12,3.61l-112,65.18c-3.62,2.1-5.62,4.74-5.62,7.46s2,5.37,5.61,7.46l112.59,65.06c8.33,4.82,21.89,4.82,30.23,0l112-65.18c3.63-2.09,5.62-4.74,5.62-7.46s-2-5.37-5.61-7.46L218.91,133.7A31,31,0,0,0,203.79,130.09Z"/><path class="cls-5" d="M398,215.39,229,313.76c-13.52,7.81-35.44,7.81-49,0L10.14,215.58C4.47,212.3,1.21,208.17.3,203.9c-1.27,5.91,2,12.08,9.84,16.62L180.05,318.7c13.52,7.81,35.44,7.81,49,0l169-98.36c7.85-4.54,11.11-10.71,9.84-16.62C407,208,403.7,212.12,398,215.39Z"/><polygon class="cls-5" points="251.86 340.46 243.81 345.11 243.81 335.82 251.86 331.17 251.86 340.46"/><polygon class="cls-5" points="268.69 330.74 260.64 335.39 260.64 326.09 268.69 321.44 268.69 330.74"/><polygon class="cls-5" points="285.51 321.02 277.47 325.66 277.47 316.37 285.51 311.72 285.51 321.02"/><polygon class="cls-5" points="271.75 347.8 263.71 352.45 263.71 343.16 271.75 338.51 271.75 347.8"/><polygon class="cls-5" points="286.57 339.24 278.53 343.89 278.53 334.59 286.57 329.94 286.57 339.24"/><polygon class="cls-5" points="339.49 289.82 331.45 294.47 331.45 285.18 339.49 280.53 339.49 289.82"/><polygon class="cls-5" points="385.85 263.04 377.8 267.69 377.8 258.39 385.85 253.74 385.85 263.04"/><polygon class="cls-5" points="302.34 311.29 294.3 315.94 294.3 306.64 302.34 302 302.34 311.29"/><path class="cls-9" d="M408.17,200.33h0l0-81.53L305.2,132.55,228.12,88c-13.52-7.81-35.44-7.81-49,0l-12,7.64L0,118v83H.08c.19,5,3.5,9.91,10.06,13.7l169.91,98.19c13.52,7.81,35.44,7.81,49,0l169-98.37c6.54-3.78,9.85-8.7,10.06-13.66h.08Z"/><path class="cls-10" d="M398,104,228.12,5.86c-13.52-7.81-35.44-7.81-49,0l-169,98.37c-13.52,7.81-13.52,20.47,0,28.29L180.05,230.7c13.52,7.81,35.44,7.81,49,0l169-98.36C411.55,124.52,411.55,111.86,398,104Z"/><path class="cls-11" d="M398,104,228.12,5.86c-13.52-7.81-35.44-7.81-49,0l-169,98.37c-13.52,7.81-13.52,20.47,0,28.29L180.05,230.7c13.52,7.81,35.44,7.81,49,0l169-98.36C411.55,124.52,411.55,111.86,398,104Z"/><path class="cls-4" d="M204.38,198.89a35.22,35.22,0,0,1-17.32-4.21L74.48,129.63c-5-2.92-7.82-6.92-7.82-11.29s2.77-8.37,7.82-11.28l112-65.18c9.72-5.61,24.94-5.61,34.65,0l112.58,65.06c5,2.91,7.82,6.92,7.82,11.28s-2.78,8.37-7.82,11.28l-112,65.18A35.26,35.26,0,0,1,204.38,198.89Zm-.59-156.8a31,31,0,0,0-15.12,3.61l-112,65.18c-3.62,2.1-5.62,4.74-5.62,7.46s2,5.37,5.61,7.46l112.59,65.06c8.33,4.82,21.89,4.82,30.23,0l112-65.18c3.63-2.09,5.62-4.74,5.62-7.46s-2-5.37-5.61-7.46L218.91,45.7A31,31,0,0,0,203.79,42.09Z"/><path class="cls-5" d="M398,127.39,229,225.76c-13.52,7.81-35.44,7.81-49,0L10.14,127.58C4.47,124.3,1.21,120.17.3,115.9c-1.27,5.91,2,12.08,9.84,16.62L180.05,230.7c13.52,7.81,35.44,7.81,49,0l169-98.36c7.85-4.54,11.11-10.71,9.84-16.62C407,120,403.7,124.12,398,127.39Z"/><polygon class="cls-5" points="251.86 252.47 243.81 257.11 243.81 247.82 251.86 243.17 251.86 252.47"/><polygon class="cls-5" points="268.69 242.74 260.64 247.39 260.64 238.09 268.69 233.44 268.69 242.74"/><polygon class="cls-5" points="285.51 233.02 277.47 237.66 277.47 228.37 285.51 223.72 285.51 233.02"/><polygon class="cls-5" points="271.75 259.8 263.71 264.45 263.71 255.16 271.75 250.51 271.75 259.8"/><polygon class="cls-5" points="286.57 251.24 278.53 255.89 278.53 246.59 286.57 241.94 286.57 251.24"/><polygon class="cls-5" points="339.49 201.82 331.45 206.47 331.45 197.18 339.49 192.53 339.49 201.82"/><polygon class="cls-5" points="385.85 175.04 377.8 179.69 377.8 170.39 385.85 165.74 385.85 175.04"/><polygon class="cls-5" points="302.34 223.29 294.3 227.94 294.3 218.64 302.34 214 302.34 223.29"/><path class="cls-12" d="M258.78,351.81c.92,4.53-6.17,11.29-15.83,15.1s-18.24,3.2-19.16-1.33,6.16-11.3,15.82-15.1S257.85,347.27,258.78,351.81Z"/><path class="cls-12" d="M417.72,289.25c.92,4.53-6.16,11.29-15.82,15.09s-18.24,3.21-19.16-1.32,6.16-11.3,15.82-15.1S416.8,284.71,417.72,289.25Z"/><path class="cls-13" d="M228.51,259.42s-18.06,3.05-18.63,23.38"/><path class="cls-13" d="M373.76,202.25s16.53-10.57,24.67,6.33"/><path class="cls-12" d="M328.47,365.4c-9.8,3.86-20-5.71-23.3-21.79s1.85-31.68,11.65-35.54,20.05,5.71,23.31,21.78S338.27,361.54,328.47,365.4Z"/><path class="cls-14" d="M317.34,310.59c8.35-3.29,17.5,5.75,20.44,20.19s-1.46,28.81-9.82,32.1-17.5-5.75-20.44-20.19,1.46-28.81,9.82-32.1m-1-5c-11.12,4.38-17.05,21.51-13.5,39s15.05,27.75,26.17,23.38,17.06-21.51,13.51-39-15.05-27.76-26.18-23.38Z"/><path class="cls-5" d="M331.07,317.63c-1.39.53-3,1-4.7,1.55-2.09.64-4.45,1.36-6.82,2.29s-4.66,2-6.68,3c-1.66.81-3.2,1.55-4.58,2.11l0,0a2.07,2.07,0,0,1-2.26-.42,2.59,2.59,0,0,1-.57-2.48c2-7.87,6.12-13.57,11.39-15.65s11-.25,15.61,5a2.67,2.67,0,0,1,.44,2.52,3.06,3.06,0,0,1-1.77,2Z"/><path class="cls-14" d="M317.34,310.59c4.56-1.8,9.36.09,13.25,4.52-3.1,1.17-7.2,2.13-11.55,3.84s-8.21,3.89-11.29,5.15c1.65-6.61,5-11.72,9.59-13.51m-1-5c-6.17,2.43-11,8.92-13.2,17.8a5.18,5.18,0,0,0,1.14,4.94,4.08,4.08,0,0,0,4.52.84l.06,0c1.49-.61,3.06-1.37,4.73-2.18,2.08-1,4.22-2,6.5-2.94s4.5-1.57,6.64-2.23c1.73-.53,3.36-1,4.85-1.59l.07,0a6.2,6.2,0,0,0,3.53-4,5.31,5.31,0,0,0-.89-5c-5.24-5.95-11.78-8-17.95-5.54Z"/><polygon class="cls-15" points="270.1 379.91 244.2 390.11 228.22 311.44 254.11 301.25 270.1 379.91"/><line class="cls-16" x1="214.7" y1="316.76" x2="263.13" y2="297.7"/><polygon class="cls-15" points="383.67 335.21 409.56 325.02 393.58 246.35 367.68 256.55 383.67 335.21"/><line class="cls-16" x1="407.09" y1="241.04" x2="358.67" y2="260.1"/></g></g></svg>