<svg xmlns="http://www.w3.org/2000/svg" xmlns:xlink="http://www.w3.org/1999/xlink" viewBox="0 0 413.48 494.71"><defs><style>.cls-1{isolation:isolate;}.cls-2{fill:url(#Áåçûìÿííûé_ãðàäèåíò_354);}.cls-3{fill:url(#Áåçûìÿííûé_ãðàäèåíò_346);}.cls-4{fill:url(#Áåçûìÿííûé_ãðàäèåíò_67);}.cls-5{fill:#8b1e64;}.cls-19,.cls-6{fill:#fff;}.cls-7{fill:url(#Áåçûìÿííûé_ãðàäèåíò_354-2);}.cls-8{fill:url(#Áåçûìÿííûé_ãðàäèåíò_346-2);}.cls-9{fill:url(#Áåçûìÿííûé_ãðàäèåíò_67-2);}.cls-10{fill:url(#Áåçûìÿííûé_ãðàäèåíò_354-3);}.cls-11{fill:url(#Áåçûìÿííûé_ãðàäèåíò_346-3);}.cls-12{fill:url(#Áåçûìÿííûé_ãðàäèåíò_67-3);}.cls-13{fill:#231f20;}.cls-14{fill:#d96282;}.cls-15{fill:none;stroke:#231f20;stroke-linecap:round;stroke-linejoin:round;stroke-width:3.98px;}.cls-16{fill:#59c9ef;}.cls-17{mix-blend-mode:multiply;}.cls-18{fill:#d0d2d3;}.cls-19{opacity:0.5;}</style><linearGradient id="Áåçûìÿííûé_ãðàäèåíò_354" x1="-24.54" y1="376.42" x2="263.29" y2="376.42" gradientUnits="userSpaceOnUse"><stop offset="0" stop-color="#01c8ef"/><stop offset="0.13" stop-color="#04b1dd"/><stop offset="0.55" stop-color="#0e6ba7"/><stop offset="0.85" stop-color="#154085"/><stop offset="1" stop-color="#172f78"/></linearGradient><radialGradient id="Áåçûìÿííûé_ãðàäèåíò_346" cx="509.88" cy="217.34" r="145.66" gradientTransform="translate(-2325.61 -799.52) scale(4.41 4.42)" gradientUnits="userSpaceOnUse"><stop offset="0" stop-color="#01c8ef"/><stop offset="0.14" stop-color="#03bae4"/><stop offset="0.4" stop-color="#0895c8"/><stop offset="0.76" stop-color="#115a9a"/><stop offset="1" stop-color="#172f78"/></radialGradient><radialGradient id="Áåçûìÿííûé_ãðàäèåíò_67" cx="522.73" cy="226.12" r="100.14" gradientTransform="translate(-2325.61 -799.52) scale(4.41 4.42)" gradientUnits="userSpaceOnUse"><stop offset="0" stop-color="#f9636b"/><stop offset="1" stop-color="#b6246e"/></radialGradient><linearGradient id="Áåçûìÿííûé_ãðàäèåíò_354-2" x1="-24.54" y1="288.42" x2="263.29" y2="288.42" xlink:href="#Áåçûìÿííûé_ãðàäèåíò_354"/><radialGradient id="Áåçûìÿííûé_ãðàäèåíò_346-2" cx="509.88" cy="197.41" r="145.66" xlink:href="#Áåçûìÿííûé_ãðàäèåíò_346"/><radialGradient id="Áåçûìÿííûé_ãðàäèåíò_67-2" cx="522.73" cy="206.19" r="100.14" xlink:href="#Áåçûìÿííûé_ãðàäèåíò_67"/><linearGradient id="Áåçûìÿííûé_ãðàäèåíò_354-3" x1="-24.54" y1="200.42" x2="263.29" y2="200.42" xlink:href="#Áåçûìÿííûé_ãðàäèåíò_354"/><radialGradient id="Áåçûìÿííûé_ãðàäèåíò_346-3" cx="509.88" cy="177.49" r="145.66" xlink:href="#Áåçûìÿííûé_ãðàäèåíò_346"/><radialGradient id="Áåçûìÿííûé_ãðàäèåíò_67-3" cx="522.73" cy="186.27" r="100.14" xlink:href="#Áåçûìÿííûé_ãðàäèåíò_67"/></defs><title>server-2</title><g class="cls-1"><g id="Layer_2" data-name="Layer 2"><g id="Layer_1-2" data-name="Layer 1"><path class="cls-2" d="M408.17,376.33h0l0-81.53L305.2,308.55,228.12,264c-13.52-7.81-35.44-7.81-49,0l-12,7.64L0,294v83H.08c.19,5,3.5,9.91,10.06,13.7l169.91,98.19c13.52,7.81,35.44,7.81,49,0l169-98.37c6.54-3.78,9.85-8.7,10.06-13.66h.08Z"/><path class="cls-3" d="M398,280,228.12,181.86c-13.52-7.81-35.44-7.81-49,0l-169,98.37c-13.52,7.81-13.52,20.47,0,28.29L180.05,406.7c13.52,7.81,35.44,7.81,49,0l169-98.36C411.55,300.52,411.55,287.86,398,280Z"/><path class="cls-4" d="M398,280,228.12,181.86c-13.52-7.81-35.44-7.81-49,0l-169,98.37c-13.52,7.81-13.52,20.47,0,28.29L180.05,406.7c13.52,7.81,35.44,7.81,49,0l169-98.36C411.55,300.52,411.55,287.86,398,280Z"/><path class="cls-5" d="M204.38,374.89a35.22,35.22,0,0,1-17.32-4.21L74.48,305.63c-5-2.92-7.82-6.92-7.82-11.29s2.77-8.37,7.82-11.28l112-65.18c9.72-5.61,24.94-5.61,34.65,0l112.58,65.06c5,2.91,7.82,6.92,7.82,11.28s-2.78,8.37-7.82,11.28l-112,65.18A35.26,35.26,0,0,1,204.38,374.89Zm-.59-156.8a31,31,0,0,0-15.12,3.61l-112,65.18c-3.62,2.1-5.62,4.74-5.62,7.46s2,5.37,5.61,7.46l112.59,65.06c8.33,4.82,21.89,4.82,30.23,0l112-65.18c3.63-2.09,5.62-4.74,5.62-7.46s-2-5.37-5.61-7.46L218.91,221.7A31,31,0,0,0,203.79,218.09Z"/><path class="cls-6" d="M398,303.39,229,401.76c-13.52,7.81-35.44,7.81-49,0L10.14,303.58C4.47,300.3,1.21,296.17.3,291.9c-1.27,5.91,2,12.08,9.84,16.62L180.05,406.7c13.52,7.81,35.44,7.81,49,0l169-98.36c7.85-4.54,11.11-10.71,9.84-16.62C407,296,403.7,300.12,398,303.39Z"/><polygon class="cls-6" points="251.86 428.46 243.81 433.11 243.81 423.82 251.86 419.17 251.86 428.46"/><polygon class="cls-6" points="268.69 418.74 260.64 423.39 260.64 414.09 268.69 409.44 268.69 418.74"/><polygon class="cls-6" points="285.51 409.02 277.47 413.66 277.47 404.37 285.51 399.72 285.51 409.02"/><polygon class="cls-6" points="271.75 435.8 263.71 440.45 263.71 431.16 271.75 426.51 271.75 435.8"/><polygon class="cls-6" points="286.57 427.24 278.53 431.89 278.53 422.59 286.57 417.94 286.57 427.24"/><polygon class="cls-6" points="339.49 377.82 331.45 382.47 331.45 373.18 339.49 368.53 339.49 377.82"/><polygon class="cls-6" points="385.85 351.04 377.8 355.69 377.8 346.39 385.85 341.74 385.85 351.04"/><polygon class="cls-6" points="302.34 399.29 294.3 403.94 294.3 394.64 302.34 390 302.34 399.29"/><path class="cls-7" d="M408.17,288.33h0l0-81.53L305.2,220.55,228.12,176c-13.52-7.81-35.44-7.81-49,0l-12,7.64L0,206v83H.08c.19,5,3.5,9.91,10.06,13.7l169.91,98.19c13.52,7.81,35.44,7.81,49,0l169-98.37c6.54-3.78,9.85-8.7,10.06-13.66h.08Z"/><path class="cls-8" d="M398,192,228.12,93.86c-13.52-7.81-35.44-7.81-49,0l-169,98.37c-13.52,7.81-13.52,20.47,0,28.29L180.05,318.7c13.52,7.81,35.44,7.81,49,0l169-98.36C411.55,212.52,411.55,199.86,398,192Z"/><path class="cls-9" d="M398,192,228.12,93.86c-13.52-7.81-35.44-7.81-49,0l-169,98.37c-13.52,7.81-13.52,20.47,0,28.29L180.05,318.7c13.52,7.81,35.44,7.81,49,0l169-98.36C411.55,212.52,411.55,199.86,398,192Z"/><path class="cls-5" d="M204.38,286.89a35.22,35.22,0,0,1-17.32-4.21L74.48,217.63c-5-2.92-7.82-6.92-7.82-11.29s2.77-8.37,7.82-11.28l112-65.18c9.72-5.61,24.94-5.61,34.65,0l112.58,65.06c5,2.91,7.82,6.92,7.82,11.28s-2.78,8.37-7.82,11.28l-112,65.18A35.26,35.26,0,0,1,204.38,286.89Zm-.59-156.8a31,31,0,0,0-15.12,3.61l-112,65.18c-3.62,2.1-5.62,4.74-5.62,7.46s2,5.37,5.61,7.46l112.59,65.06c8.33,4.82,21.89,4.82,30.23,0l112-65.18c3.63-2.09,5.62-4.74,5.62-7.46s-2-5.37-5.61-7.46L218.91,133.7A31,31,0,0,0,203.79,130.09Z"/><path class="cls-6" d="M398,215.39,229,313.76c-13.52,7.81-35.44,7.81-49,0L10.14,215.58C4.47,212.3,1.21,208.17.3,203.9c-1.27,5.91,2,12.08,9.84,16.62L180.05,318.7c13.52,7.81,35.44,7.81,49,0l169-98.36c7.85-4.54,11.11-10.71,9.84-16.62C407,208,403.7,212.12,398,215.39Z"/><polygon class="cls-6" points="251.86 340.46 243.81 345.11 243.81 335.82 251.86 331.17 251.86 340.46"/><polygon class="cls-6" points="268.69 330.74 260.64 335.39 260.64 326.09 268.69 321.44 268.69 330.74"/><polygon class="cls-6" points="285.51 321.02 277.47 325.66 277.47 316.37 285.51 311.72 285.51 321.02"/><polygon class="cls-6" points="271.75 347.8 263.71 352.45 263.71 343.16 271.75 338.51 271.75 347.8"/><polygon class="cls-6" points="286.57 339.24 278.53 343.89 278.53 334.59 286.57 329.94 286.57 339.24"/><polygon class="cls-6" points="339.49 289.82 331.45 294.47 331.45 285.18 339.49 280.53 339.49 289.82"/><polygon class="cls-6" points="385.85 263.04 377.8 267.69 377.8 258.39 385.85 253.74 385.85 263.04"/><polygon class="cls-6" points="302.34 311.29 294.3 315.94 294.3 306.64 302.34 302 302.34 311.29"/><path class="cls-10" d="M408.17,200.33h0l0-81.53L305.2,132.55,228.12,88c-13.52-7.81-35.44-7.81-49,0l-12,7.64L0,118v83H.08c.19,5,3.5,9.91,10.06,13.7l169.91,98.19c13.52,7.81,35.44,7.81,49,0l169-98.37c6.54-3.78,9.85-8.7,10.06-13.66h.08Z"/><path class="cls-11" d="M398,104,228.12,5.86c-13.52-7.81-35.44-7.81-49,0l-169,98.37c-13.52,7.81-13.52,20.47,0,28.29L180.05,230.7c13.52,7.81,35.44,7.81,49,0l169-98.36C411.55,124.52,411.55,111.86,398,104Z"/><path class="cls-12" d="M398,104,228.12,5.86c-13.52-7.81-35.44-7.81-49,0l-169,98.37c-13.52,7.81-13.52,20.47,0,28.29L180.05,230.7c13.52,7.81,35.44,7.81,49,0l169-98.36C411.55,124.52,411.55,111.86,398,104Z"/><path class="cls-5" d="M204.38,198.89a35.22,35.22,0,0,1-17.32-4.21L74.48,129.63c-5-2.92-7.82-6.92-7.82-11.29s2.77-8.37,7.82-11.28l112-65.18c9.72-5.61,24.94-5.61,34.65,0l112.58,65.06c5,2.91,7.82,6.92,7.82,11.28s-2.78,8.37-7.82,11.28l-112,65.18A35.26,35.26,0,0,1,204.38,198.89Zm-.59-156.8a31,31,0,0,0-15.12,3.61l-112,65.18c-3.62,2.1-5.62,4.74-5.62,7.46s2,5.37,5.61,7.46l112.59,65.06c8.33,4.82,21.89,4.82,30.23,0l112-65.18c3.63-2.09,5.62-4.74,5.62-7.46s-2-5.37-5.61-7.46L218.91,45.7A31,31,0,0,0,203.79,42.09Z"/><path class="cls-6" d="M398,127.39,229,225.76c-13.52,7.81-35.44,7.81-49,0L10.14,127.58C4.47,124.3,1.21,120.17.3,115.9c-1.27,5.91,2,12.08,9.84,16.62L180.05,230.7c13.52,7.81,35.44,7.81,49,0l169-98.36c7.85-4.54,11.11-10.71,9.84-16.62C407,120,403.7,124.12,398,127.39Z"/><polygon class="cls-6" points="251.86 252.47 243.81 257.11 243.81 247.82 251.86 243.17 251.86 252.47"/><polygon class="cls-6" points="268.69 242.74 260.64 247.39 260.64 238.09 268.69 233.44 268.69 242.74"/><polygon class="cls-6" points="285.51 233.02 277.47 237.66 277.47 228.37 285.51 223.72 285.51 233.02"/><polygon class="cls-6" points="271.75 259.8 263.71 264.45 263.71 255.16 271.75 250.51 271.75 259.8"/><polygon class="cls-6" points="286.57 251.24 278.53 255.89 278.53 246.59 286.57 241.94 286.57 251.24"/><polygon class="cls-6" points="339.49 201.82 331.45 206.47 331.45 197.18 339.49 192.53 339.49 201.82"/><polygon class="cls-6" points="385.85 175.04 377.8 179.69 377.8 170.39 385.85 165.74 385.85 175.04"/><polygon class="cls-6" points="302.34 223.29 294.3 227.94 294.3 218.64 302.34 214 302.34 223.29"/><ellipse class="cls-13" cx="261.9" cy="304.75" rx="19.12" ry="38.86" transform="translate(-40.1 39.68) rotate(-8.05)"/><path class="cls-6" d="M272.64,283.88c1.95,9,.16,17.79-4,19.71s-9.09-3.77-11-12.73-.15-17.78,4-19.7S270.7,274.93,272.64,283.88Z"/><path class="cls-6" d="M257,302.53c.71,3.24.06,6.43-1.44,7.13s-3.29-1.37-4-4.61-.06-6.43,1.44-7.13S256.33,299.29,257,302.53Z"/><path class="cls-6" d="M268.4,313c.7,3.24.05,6.44-1.45,7.13s-3.29-1.36-4-4.6-.06-6.43,1.44-7.13S267.69,309.73,268.4,313Z"/><ellipse class="cls-13" cx="381.14" cy="249.38" rx="19.12" ry="38.86" transform="translate(-31.17 55.84) rotate(-8.05)"/><path class="cls-6" d="M391.88,228.51c1.95,9,.16,17.78-4,19.71s-9.09-3.77-11-12.73-.16-17.78,4-19.71S389.94,219.56,391.88,228.51Z"/><path class="cls-6" d="M376.28,247.16c.7,3.24.05,6.43-1.45,7.13s-3.29-1.37-4-4.61-.06-6.43,1.44-7.13S375.57,243.91,376.28,247.16Z"/><path class="cls-6" d="M387.64,257.6c.7,3.24.06,6.44-1.45,7.13s-3.28-1.36-4-4.6-.05-6.44,1.45-7.13S386.94,254.36,387.64,257.6Z"/><path class="cls-14" d="M276.84,341.29c.88,4-5.14,10.41-13.44,14.27s-15.74,3.71-16.61-.31,5.14-10.41,13.44-14.27S276,337.27,276.84,341.29Z"/><path class="cls-14" d="M413.4,277.88c.87,4-5.15,10.41-13.45,14.27s-15.73,3.71-16.61-.31,5.15-10.41,13.45-14.27S412.53,273.86,413.4,277.88Z"/><path class="cls-15" d="M373.72,207.28s9.52,12.4,22.5-.52"/><path class="cls-15" d="M249.76,264.84S246.88,283,231.18,283.4"/><path class="cls-6" d="M338.05,349.42c-18,8.36-35.72,1.06-39.48-16.27-1.57-7.22.32-11.95,5.76-14.48a44.61,44.61,0,0,1,9.63-2.61c4.83-1,10.31-2.05,15.85-4.62s10.43-6.3,14.76-9.59a54.48,54.48,0,0,1,8.9-6c5.44-2.52,8.85-.25,10.41,7C367.65,320.15,356.06,341.06,338.05,349.42Z"/><path class="cls-13" d="M354,298.09c3.81-1.77,6.49-.88,7.91,5.67,3.5,16.12-7.38,35.57-24.3,43.43s-33.47,1.15-37-15c-1.42-6.54.42-9.54,4.23-11.3,5.58-2.6,15.41-2.57,25.47-7.24s18.08-13,23.66-15.58m-1-4.47h0c-2.84,1.32-5.85,3.61-9.34,6.26-4.22,3.22-9,6.86-14.32,9.32s-10.65,3.53-15.38,4.47c-3.89.78-7.25,1.45-10.09,2.77-3.78,1.75-9.75,6.38-7.31,17.65,4,18.56,22.87,26.44,42,17.56s31.41-31.21,27.38-49.77c-2.45-11.27-9.15-10-12.93-8.26Z"/><path class="cls-13" d="M299.35,329.8c0,.61,3.31,2,3.79,2.27a18.46,18.46,0,0,0,5.35,1.75,24.6,24.6,0,0,0,4.22.26c.89,0,2-.07,2.77,0a25.44,25.44,0,0,1-15.07,3.49C299.5,337.48,299.35,329.8,299.35,329.8Z"/><path class="cls-13" d="M361.65,300.87c.24.5-1.9,4.44-2.19,5a35.4,35.4,0,0,1-3.68,5.95,43.25,43.25,0,0,1-3.35,3.78c-.73.74-1.63,1.59-2.26,2.34a32.79,32.79,0,0,0,13.69-9.86C364.57,307.27,361.66,300.87,361.65,300.87Z"/><path class="cls-13" d="M321.83,333.3s.18-.15.5-.38.78-.53,1.33-.87,1.2-.7,1.9-1.06,1.44-.72,2.19-1c.38-.15.74-.34,1.11-.48s.73-.3,1.09-.43c.7-.29,1.36-.53,1.94-.71l.79-.28.62-.2c.35-.1.57-.14.57-.14s-.15.19-.43.49-.31.34-.52.54a8.84,8.84,0,0,1-.69.65,22.93,22.93,0,0,1-1.87,1.33,24.64,24.64,0,0,1-2.23,1.16,19.26,19.26,0,0,1-2.28.84,13.83,13.83,0,0,1-2,.46,10.61,10.61,0,0,1-1.45.14A3.44,3.44,0,0,1,321.83,333.3Z"/><path class="cls-16" d="M228.22,355.35c-7.15,3.31-14.69-3.07-17.18-14.54-2.31-10.64,3.78-37.54,4.05-38.68l.81-3.55,2.06,2.21c.66.71,16.25,17.55,18.56,28.19C239,340.45,235.36,352,228.22,355.35Z"/><path class="cls-13" d="M216.71,302.33s15.93,17.12,18.17,27.41-.93,20.95-7.06,23.8-12.91-3.2-15.14-13.49,4-37.72,4-37.72m-1.63-7.51-1.62,7.1c-.67,2.91-6.43,28.74-4.06,39.65,2.71,12.49,11.15,19.33,19.21,15.59s12.26-16.46,9.55-28.94c-2.37-10.91-17.26-27.15-18.95-29l-4.13-4.43Z"/><g class="cls-17"><path class="cls-18" d="M232.26,323.18a114.37,114.37,0,0,1-.15,13,43.39,43.39,0,0,1-5.25,17.75,9.46,9.46,0,0,0,1-.37c6.13-2.85,9.29-13.5,7.06-23.8A26.57,26.57,0,0,0,232.26,323.18Z"/></g><path class="cls-19" d="M217.27,307.26s-4.25,19.39-3,23.48S218.65,323.08,217.27,307.26Z"/></g></g></g></svg>