<svg xmlns="http://www.w3.org/2000/svg" xmlns:xlink="http://www.w3.org/1999/xlink" viewBox="0 0 416.7 494.71"><defs><style>.cls-1{fill:url(#Áåçûìÿííûé_ãðàäèåíò_354);}.cls-2{fill:url(#Áåçûìÿííûé_ãðàäèåíò_346);}.cls-3{fill:url(#Áåçûìÿííûé_ãðàäèåíò_67);}.cls-4{fill:#8b1e64;}.cls-5{fill:#fff;}.cls-6{fill:url(#Áåçûìÿííûé_ãðàäèåíò_354-2);}.cls-7{fill:url(#Áåçûìÿííûé_ãðàäèåíò_346-2);}.cls-8{fill:url(#Áåçûìÿííûé_ãðàäèåíò_67-2);}.cls-9{fill:url(#Áåçûìÿííûé_ãðàäèåíò_354-3);}.cls-10{fill:url(#Áåçûìÿííûé_ãðàäèåíò_346-3);}.cls-11{fill:url(#Áåçûìÿííûé_ãðàäèåíò_67-3);}.cls-12{fill:#d96282;}.cls-13{fill:#231f20;}.cls-14,.cls-15{fill:none;stroke:#231f20;stroke-linecap:round;stroke-linejoin:round;}.cls-14{stroke-width:4.21px;}.cls-15{stroke-width:3.7px;}</style><linearGradient id="Áåçûìÿííûé_ãðàäèåíò_354" x1="-24.54" y1="376.42" x2="263.29" y2="376.42" gradientUnits="userSpaceOnUse"><stop offset="0" stop-color="#01c8ef"/><stop offset="0.13" stop-color="#04b1dd"/><stop offset="0.55" stop-color="#0e6ba7"/><stop offset="0.85" stop-color="#154085"/><stop offset="1" stop-color="#172f78"/></linearGradient><radialGradient id="Áåçûìÿííûé_ãðàäèåíò_346" cx="-325.38" cy="-186.48" r="145.66" gradientTransform="translate(1360.3 984.02) scale(4.41 4.42)" gradientUnits="userSpaceOnUse"><stop offset="0" stop-color="#01c8ef"/><stop offset="0.14" stop-color="#03bae4"/><stop offset="0.4" stop-color="#0895c8"/><stop offset="0.76" stop-color="#115a9a"/><stop offset="1" stop-color="#172f78"/></radialGradient><radialGradient id="Áåçûìÿííûé_ãðàäèåíò_67" cx="-312.53" cy="-177.7" r="100.14" gradientTransform="translate(1360.3 984.02) scale(4.41 4.42)" gradientUnits="userSpaceOnUse"><stop offset="0" stop-color="#f9636b"/><stop offset="1" stop-color="#b6246e"/></radialGradient><linearGradient id="Áåçûìÿííûé_ãðàäèåíò_354-2" x1="-24.54" y1="288.42" x2="263.29" y2="288.42" xlink:href="#Áåçûìÿííûé_ãðàäèåíò_354"/><radialGradient id="Áåçûìÿííûé_ãðàäèåíò_346-2" cx="-325.38" cy="-206.4" r="145.66" xlink:href="#Áåçûìÿííûé_ãðàäèåíò_346"/><radialGradient id="Áåçûìÿííûé_ãðàäèåíò_67-2" cx="-312.53" cy="-197.62" r="100.14" xlink:href="#Áåçûìÿííûé_ãðàäèåíò_67"/><linearGradient id="Áåçûìÿííûé_ãðàäèåíò_354-3" x1="-24.54" y1="200.42" x2="263.29" y2="200.42" xlink:href="#Áåçûìÿííûé_ãðàäèåíò_354"/><radialGradient id="Áåçûìÿííûé_ãðàäèåíò_346-3" cx="-325.38" cy="-226.32" r="145.66" xlink:href="#Áåçûìÿííûé_ãðàäèåíò_346"/><radialGradient id="Áåçûìÿííûé_ãðàäèåíò_67-3" cx="-312.53" cy="-217.55" r="100.14" xlink:href="#Áåçûìÿííûé_ãðàäèåíò_67"/></defs><title>server-3</title><g id="Layer_2" data-name="Layer 2"><g id="Layer_1-2" data-name="Layer 1"><path class="cls-1" d="M408.17,376.33h0l0-81.53L305.2,308.55,228.12,264c-13.52-7.81-35.44-7.81-49,0l-12,7.64L0,294v83H.08c.19,5,3.5,9.91,10.06,13.7l169.91,98.19c13.52,7.81,35.44,7.81,49,0l169-98.37c6.54-3.78,9.85-8.7,10.06-13.66h.08Z"/><path class="cls-2" d="M398,280,228.12,181.86c-13.52-7.81-35.44-7.81-49,0l-169,98.37c-13.52,7.81-13.52,20.47,0,28.29L180.05,406.7c13.52,7.81,35.44,7.81,49,0l169-98.36C411.55,300.52,411.55,287.86,398,280Z"/><path class="cls-3" d="M398,280,228.12,181.86c-13.52-7.81-35.44-7.81-49,0l-169,98.37c-13.52,7.81-13.52,20.47,0,28.29L180.05,406.7c13.52,7.81,35.44,7.81,49,0l169-98.36C411.55,300.52,411.55,287.86,398,280Z"/><path class="cls-4" d="M204.38,374.89a35.22,35.22,0,0,1-17.32-4.21L74.48,305.63c-5-2.92-7.82-6.92-7.82-11.29s2.77-8.37,7.82-11.28l112-65.18c9.72-5.61,24.94-5.61,34.65,0l112.58,65.06c5,2.91,7.82,6.92,7.82,11.28s-2.78,8.37-7.82,11.28l-112,65.18A35.26,35.26,0,0,1,204.38,374.89Zm-.59-156.8a31,31,0,0,0-15.12,3.61l-112,65.18c-3.62,2.1-5.62,4.74-5.62,7.46s2,5.37,5.61,7.46l112.59,65.06c8.33,4.82,21.89,4.82,30.23,0l112-65.18c3.63-2.09,5.62-4.74,5.62-7.46s-2-5.37-5.61-7.46L218.91,221.7A31,31,0,0,0,203.79,218.09Z"/><path class="cls-5" d="M398,303.39,229,401.76c-13.52,7.81-35.44,7.81-49,0L10.14,303.58C4.47,300.3,1.21,296.17.3,291.9c-1.27,5.91,2,12.08,9.84,16.62L180.05,406.7c13.52,7.81,35.44,7.81,49,0l169-98.36c7.85-4.54,11.11-10.71,9.84-16.62C407,296,403.7,300.12,398,303.39Z"/><polygon class="cls-5" points="251.86 428.46 243.81 433.11 243.81 423.82 251.86 419.17 251.86 428.46"/><polygon class="cls-5" points="268.69 418.74 260.64 423.39 260.64 414.09 268.69 409.44 268.69 418.74"/><polygon class="cls-5" points="285.51 409.02 277.47 413.66 277.47 404.37 285.51 399.72 285.51 409.02"/><polygon class="cls-5" points="271.75 435.8 263.71 440.45 263.71 431.16 271.75 426.51 271.75 435.8"/><polygon class="cls-5" points="286.57 427.24 278.53 431.89 278.53 422.59 286.57 417.94 286.57 427.24"/><polygon class="cls-5" points="339.49 377.82 331.45 382.47 331.45 373.18 339.49 368.53 339.49 377.82"/><polygon class="cls-5" points="385.85 351.04 377.8 355.69 377.8 346.39 385.85 341.74 385.85 351.04"/><polygon class="cls-5" points="302.34 399.29 294.3 403.94 294.3 394.64 302.34 390 302.34 399.29"/><path class="cls-6" d="M408.17,288.33h0l0-81.53L305.2,220.55,228.12,176c-13.52-7.81-35.44-7.81-49,0l-12,7.64L0,206v83H.08c.19,5,3.5,9.91,10.06,13.7l169.91,98.19c13.52,7.81,35.44,7.81,49,0l169-98.37c6.54-3.78,9.85-8.7,10.06-13.66h.08Z"/><path class="cls-7" d="M398,192,228.12,93.86c-13.52-7.81-35.44-7.81-49,0l-169,98.37c-13.52,7.81-13.52,20.47,0,28.29L180.05,318.7c13.52,7.81,35.44,7.81,49,0l169-98.36C411.55,212.52,411.55,199.86,398,192Z"/><path class="cls-8" d="M398,192,228.12,93.86c-13.52-7.81-35.44-7.81-49,0l-169,98.37c-13.52,7.81-13.52,20.47,0,28.29L180.05,318.7c13.52,7.81,35.44,7.81,49,0l169-98.36C411.55,212.52,411.55,199.86,398,192Z"/><path class="cls-4" d="M204.38,286.89a35.22,35.22,0,0,1-17.32-4.21L74.48,217.63c-5-2.92-7.82-6.92-7.82-11.29s2.77-8.37,7.82-11.28l112-65.18c9.72-5.61,24.94-5.61,34.65,0l112.58,65.06c5,2.91,7.82,6.92,7.82,11.28s-2.78,8.37-7.82,11.28l-112,65.18A35.26,35.26,0,0,1,204.38,286.89Zm-.59-156.8a31,31,0,0,0-15.12,3.61l-112,65.18c-3.62,2.1-5.62,4.74-5.62,7.46s2,5.37,5.61,7.46l112.59,65.06c8.33,4.82,21.89,4.82,30.23,0l112-65.18c3.63-2.09,5.62-4.74,5.62-7.46s-2-5.37-5.61-7.46L218.91,133.7A31,31,0,0,0,203.79,130.09Z"/><path class="cls-5" d="M398,215.39,229,313.76c-13.52,7.81-35.44,7.81-49,0L10.14,215.58C4.47,212.3,1.21,208.17.3,203.9c-1.27,5.91,2,12.08,9.84,16.62L180.05,318.7c13.52,7.81,35.44,7.81,49,0l169-98.36c7.85-4.54,11.11-10.71,9.84-16.62C407,208,403.7,212.12,398,215.39Z"/><polygon class="cls-5" points="251.86 340.46 243.81 345.11 243.81 335.82 251.86 331.17 251.86 340.46"/><polygon class="cls-5" points="268.69 330.74 260.64 335.39 260.64 326.09 268.69 321.44 268.69 330.74"/><polygon class="cls-5" points="285.51 321.02 277.47 325.66 277.47 316.37 285.51 311.72 285.51 321.02"/><polygon class="cls-5" points="271.75 347.8 263.71 352.45 263.71 343.16 271.75 338.51 271.75 347.8"/><polygon class="cls-5" points="286.57 339.24 278.53 343.89 278.53 334.59 286.57 329.94 286.57 339.24"/><polygon class="cls-5" points="339.49 289.82 331.45 294.47 331.45 285.18 339.49 280.53 339.49 289.82"/><polygon class="cls-5" points="385.85 263.04 377.8 267.69 377.8 258.39 385.85 253.74 385.85 263.04"/><polygon class="cls-5" points="302.34 311.29 294.3 315.94 294.3 306.64 302.34 302 302.34 311.29"/><path class="cls-9" d="M408.17,200.33h0l0-81.53L305.2,132.55,228.12,88c-13.52-7.81-35.44-7.81-49,0l-12,7.64L0,118v83H.08c.19,5,3.5,9.91,10.06,13.7l169.91,98.19c13.52,7.81,35.44,7.81,49,0l169-98.37c6.54-3.78,9.85-8.7,10.06-13.66h.08Z"/><path class="cls-10" d="M398,104,228.12,5.86c-13.52-7.81-35.44-7.81-49,0l-169,98.37c-13.52,7.81-13.52,20.47,0,28.29L180.05,230.7c13.52,7.81,35.44,7.81,49,0l169-98.36C411.55,124.52,411.55,111.86,398,104Z"/><path class="cls-11" d="M398,104,228.12,5.86c-13.52-7.81-35.44-7.81-49,0l-169,98.37c-13.52,7.81-13.52,20.47,0,28.29L180.05,230.7c13.52,7.81,35.44,7.81,49,0l169-98.36C411.55,124.52,411.55,111.86,398,104Z"/><path class="cls-4" d="M204.38,198.89a35.22,35.22,0,0,1-17.32-4.21L74.48,129.63c-5-2.92-7.82-6.92-7.82-11.29s2.77-8.37,7.82-11.28l112-65.18c9.72-5.61,24.94-5.61,34.65,0l112.58,65.06c5,2.91,7.82,6.92,7.82,11.28s-2.78,8.37-7.82,11.28l-112,65.18A35.26,35.26,0,0,1,204.38,198.89Zm-.59-156.8a31,31,0,0,0-15.12,3.61l-112,65.18c-3.62,2.1-5.62,4.74-5.62,7.46s2,5.37,5.61,7.46l112.59,65.06c8.33,4.82,21.89,4.82,30.23,0l112-65.18c3.63-2.09,5.62-4.74,5.62-7.46s-2-5.37-5.61-7.46L218.91,45.7A31,31,0,0,0,203.79,42.09Z"/><path class="cls-5" d="M398,127.39,229,225.76c-13.52,7.81-35.44,7.81-49,0L10.14,127.58C4.47,124.3,1.21,120.17.3,115.9c-1.27,5.91,2,12.08,9.84,16.62L180.05,230.7c13.52,7.81,35.44,7.81,49,0l169-98.36c7.85-4.54,11.11-10.71,9.84-16.62C407,120,403.7,124.12,398,127.39Z"/><polygon class="cls-5" points="251.86 252.47 243.81 257.11 243.81 247.82 251.86 243.17 251.86 252.47"/><polygon class="cls-5" points="268.69 242.74 260.64 247.39 260.64 238.09 268.69 233.44 268.69 242.74"/><polygon class="cls-5" points="285.51 233.02 277.47 237.66 277.47 228.37 285.51 223.72 285.51 233.02"/><polygon class="cls-5" points="271.75 259.8 263.71 264.45 263.71 255.16 271.75 250.51 271.75 259.8"/><polygon class="cls-5" points="286.57 251.24 278.53 255.89 278.53 246.59 286.57 241.94 286.57 251.24"/><polygon class="cls-5" points="339.49 201.82 331.45 206.47 331.45 197.18 339.49 192.53 339.49 201.82"/><polygon class="cls-5" points="385.85 175.04 377.8 179.69 377.8 170.39 385.85 165.74 385.85 175.04"/><polygon class="cls-5" points="302.34 223.29 294.3 227.94 294.3 218.64 302.34 214 302.34 223.29"/><path class="cls-12" d="M334.09,376.23c-10.28,3.53-16.35,3.84-19.69,1-3.67-3.1-3.19-9.17-2.67-15.6.34-4.25.73-9.07,0-13.59a66.82,66.82,0,0,0-3.17-11.52c-2.18-6.38-4.07-11.89-1.36-17.32,2.27-4.56,7.25-8,16.14-11,8.19-2.81,13.57-3,16.94-.5,4.26,3.13,4.41,9.54,4.59,17a88.81,88.81,0,0,0,.82,11.7,93.54,93.54,0,0,0,2.47,10.56c2,7.14,3.67,13.3.64,19C346.51,370.3,341.83,373.57,334.09,376.23Z"/><path class="cls-13" d="M323.73,310.58c24.08-8.28,17,9.1,19.74,26.57s13.08,28.86-9.75,36.71c-29.44,10.12-17-9.1-19.75-26.57s-15.94-27.88,9.76-36.71m-.75-4.74c-9.61,3.31-15.08,7.15-17.72,12.45-3.25,6.5-1.1,12.78,1.18,19.42a66,66,0,0,1,3.07,11.11c.67,4.22.31,8.67,0,13-.54,6.74-1.09,13.72,3.39,17.5,4,3.35,10.42,3.14,21.6-.71,8.42-2.89,13.59-6.59,16.26-11.63,3.57-6.74,1.66-13.69-.38-21a95.17,95.17,0,0,1-2.41-10.29,86.37,86.37,0,0,1-.78-11.38c-.19-7.69-.37-14.95-5.42-18.66-3.91-2.87-9.87-2.79-18.75.26Z"/><path class="cls-12" d="M266,353.2c.68,4.27-6.2,10.28-15.36,13.42s-17.13,2.25-17.8-2,6.21-10.27,15.36-13.42S265.3,348.94,266,353.2Z"/><path class="cls-12" d="M416.66,301.41c.67,4.27-6.21,10.27-15.37,13.42s-17.12,2.24-17.8-2,6.2-10.28,15.36-13.42S416,297.14,416.66,301.41Z"/><path class="cls-14" d="M239.06,259s-16.95,2.1-18.32,21"/><path class="cls-14" d="M376.76,211.68s15.84-9.17,22.73,6.91"/><path class="cls-5" d="M253.35,286.72c-16.71-1.36-25.9,28.59-22.31,41.57,4.66,16.44,31.32,15.48,39-1.37,15.95-32.82-24.17-58.39-37.27-17.26-4.71,15.84,1.73,24,14.53,26.72C266,340.87,272,323,267.71,305.84S245.85,284.93,238,303.5c-8.47,18.21-4.71,32.23,14.2,31.2,7.75.07,13.28-4,15-12.81"/><path class="cls-13" d="M253.35,284.78c-14.23-.66-21.67,15.89-24,27.6-2.49,12.5,0,26.45,14.53,29.22,14.69,2.8,26.8-7.1,30.55-20.83,3.07-11.27.18-24.73-10.17-31.3-24.45-15.51-49.18,32.92-25.59,45.89,6.19,3.4,14.9,5.17,21.54,2.12,6.19-2.84,9.35-9.32,10.34-15.77,1.87-12.09-2.65-33.27-18.62-32.44-8.46.44-13.44,8.05-16.43,15.07s-5.7,16.36-2,23.78c3.52,7.07,11.41,8.77,18.68,8.52,9.07-.32,14.87-5.4,16.86-14.23.55-2.43-3.19-3.47-3.74-1-1.77,7.85-6.59,11.38-14.51,11.43-5.43,0-11.41-1.28-13.94-6.64S236,314,237.89,308.69c2.16-6,5.48-13.45,12.23-15.22,13.74-3.6,17.71,16.47,16.81,25.92-.55,5.78-2.85,12.07-8.49,14.61s-13.67.67-18.75-2.52c-11.51-7.24-5.78-24.59.82-33.36,5.24-7,14-10.29,21.77-5.3s10.54,15,9.1,23.7c-1.92,11.72-10,21.44-22.49,21.64-5.63.08-11.57-2.07-14.57-7.1-2.88-4.83-2.39-11.26-1.45-16.57,1.79-10.15,7.8-26.42,20.48-25.83,2.5.12,2.49-3.76,0-3.88Z"/><path class="cls-5" d="M374.11,245.21c14.58-12.12,31.8,8.76,32.46,22.75.74,17.78-23.45,34.3-35.36,24.18-24.14-19,4.19-68.14,28.26-39.79,9,11.13,5.64,22.67-5,33.45C379,302.05,368.27,289.87,367,271.73s13.34-33,26-21.51c13,10.83,13.87,25.85-3.41,37.26-6.92,5.11-13.12,5-17.28-1.72"/><path class="cls-13" d="M375.48,246.59c10.78-8.34,22.31,2.76,26.79,12.56,4.7,10.29,1.23,20.69-7.19,27.83-8,6.8-18.93,9.17-26.19.18-5.34-6.6-6-15.71-3.63-23.63,2.14-7.22,7.19-15.06,14.81-17.29,9.66-2.82,19.61,6.19,22,15,2.06,7.56-1.7,14.81-6.52,20.43-3.7,4.31-9.77,11-16.24,9.6-11.73-2.49-11.92-23.72-8.67-32,2.16-5.5,7-11.55,13.5-11.16s13.16,8,15.4,13.82c2.49,6.47.4,13-4.08,18-5.3,5.94-15.46,13.8-21.55,4.82-1.4-2-4.76-.11-3.35,2,10,14.65,29.67-1.11,33.24-13.67,1.85-6.5-.05-13.13-4-18.44S390,244,383.1,244.25c-16.55.6-19.9,22.8-16.94,35.15,1.4,5.8,4.32,12.41,10.13,15,6.11,2.68,12.39-.73,17-4.74,6.61-5.79,13-14.07,13.3-23.23.25-8.09-4.52-15.5-10.81-20.25-8.8-6.64-19.59-5-26.87,3-7.42,8.16-10.79,20.67-7.7,31.36,3.43,11.83,14.23,19.57,26.37,15.26,14.15-5,24.66-20.47,19.39-35.35-4.89-13.78-20.15-27.46-34.21-16.59-2,1.53.79,4.25,2.74,2.75Z"/><line class="cls-14" x1="236.93" y1="348.18" x2="243.52" y2="389.93"/><line class="cls-15" x1="244.86" y1="347.54" x2="249.95" y2="379.78"/><line class="cls-15" x1="252.62" y1="344.87" x2="257.7" y2="377.12"/></g></g></svg>