<svg xmlns="http://www.w3.org/2000/svg" viewBox="0 0 184.72 457.33"><defs><style>.cls-1{fill:#16211f;}.cls-2{fill:#ccc;}</style></defs><title>leftHand</title><g id="Layer_2" data-name="Layer 2"><g id="Layer_1-2" data-name="Layer 1"><path class="cls-1" d="M181,52.84c2.66,15.15,8.06,32-2.74,45.24-4.1,5-8.74,10.17-14.11,13.89a33.72,33.72,0,0,0-1.37,11.8h-1.23q-.06-2.37-.3-4.77c0-.88,0-1.78,0-2.68a11.43,11.43,0,0,1,.4-2.8,26.6,26.6,0,0,1-16.48,3.79c-6.57-.68-8.79-6.52-8.65-12.19-8.86,7-18.66,8.54-26.44-3.08a17.07,17.07,0,0,1-4.34,4.11,26.8,26.8,0,0,1-9.26,3.7,33.09,33.09,0,0,1,8.49,8.76c6.46,10.15,8.18,20.36,6.38,32-1.19-18.46-11-37.9-29-44.5a1.13,1.13,0,0,0-1.42.62,13.16,13.16,0,0,0-1,2.36,17.56,17.56,0,0,1-7.07,6.45,19.39,19.39,0,0,1-6.26,2.19A7.88,7.88,0,0,1,59.05,115c-5.16-3.19-7.88-9.86-8-16.89A28.65,28.65,0,0,0,45,103.41c-.74.89-2.36.17-1.72-.93,2.44-4.08,6.6-6.4,10.72-8.71v-.1c6.17-3.74,11.59-8.42,14.85-15,4.45-8.91,10.51-35.32-9.76-29.55-9.55,2.7-16.1,18.25-23,25.15-6.36,6.37-13.62,11.06-20.76,16.46-2.74,2.08-5.63,4-8,6.55-6.42,7-2.67,18.38-.55,26.28.78,2.9,1.68,5.77,2.74,8.59l-1.46.5c-1.49-3.88-2.79-7.86-3.87-11.81-1.55-5.6-5.09-11.56-4-17.52A15.07,15.07,0,0,1,4.4,96c1.29-4.16,2.3-8.5,3.32-12.88a45.76,45.76,0,0,1,1.49-6.22C11.46,68,14.32,59.24,20.3,52.11c5.07-6,10.3-11.9,15.56-17.75A136.18,136.18,0,0,1,54.43,12.9C58.64,7.62,63.71,1.61,69.65.29c8.46-1.85,13.45,5.6,16.61,12.29a1.29,1.29,0,0,1,0,1c8.32-9.95,18-18.32,28.58-5.52a71.25,71.25,0,0,1,9.34,14.21C129.69,19.44,133.33,15,140,15c4.22,0,8.57,4.69,10.27,8a96.33,96.33,0,0,1,4.31,9.83s0,0,0,0c6.65-.25,15-2.12,20.12,3.79C179,41.5,179.91,46.61,181,52.84Zm0,30.54c.76-10.23-1.45-20-2.64-30-.8-6.63-2.47-15.64-10.31-18-2.71-.83-9.2-1.31-13.27-1.68,3.81,10.39,6.39,22.52,5.16,32S150.91,90.85,141.1,101c0,.42-.12.84-.16,1.29-1.91,2.44-2.31,5.41,0,8.91,3.87,6,12.61,2.83,17.52.51a42.84,42.84,0,0,0,18.31-16.13,25.91,25.91,0,0,0,2.82-6.52A17.43,17.43,0,0,0,181,83.38ZM157.83,63.54c1.58-12-2.85-24.46-8.32-35.17A31.83,31.83,0,0,0,146.92,23a9.62,9.62,0,0,0-7.19-4.53c-2.4-.41-5.3.22-8.88,2.49a38.64,38.64,0,0,1-5.79,3.11c4.71,10.67,5.46,21.91,1.83,35.14a249.49,249.49,0,0,1-9.47,28.4c-.87,2.1-1.82,4.51-2.92,6.9-2.46,2.45-1.79,5.79.77,8.92,4.13,5.06,10.56,4.53,15.81,1.56,7.4-4.2,12.95-13.07,17.19-20a65.72,65.72,0,0,0,5.23-10.32,57,57,0,0,0,2.85-6.2,20.41,20.41,0,0,0,1.1-4.26A1,1,0,0,0,157.83,63.54Zm-33-7.81c3.44-11.51,3-20.9-2.94-31.46a102.49,102.49,0,0,0-10.7-14.78,15.49,15.49,0,0,0-5.21-4.59c-1.65-1-3.18-1.4-4.41-.76a12.22,12.22,0,0,0-6.34,3.3c-2.87,2.52-5.58,5.19-8.45,7.68a69,69,0,0,1,3.82,8.52c7,18.86.44,39.66-3,58.76-.14.76-.28,1.58-.41,2.36a1.56,1.56,0,0,1,.12.64,52.09,52.09,0,0,1-2.14,12.34,2.1,2.1,0,0,1,.33.88c.1.58.23,1.13.36,1.62a1.62,1.62,0,0,1,.06.17,7.32,7.32,0,0,0,.36,1l0,.07A6.13,6.13,0,0,0,90,105.23a12.41,12.41,0,0,0,9.5.29c9.11-3.23,13-15,15.62-23C116.8,77.41,119,72.11,121,66.73,122.37,63.11,123.67,59.45,124.79,55.73ZM89.59,48a46,46,0,0,0,.25-13.42c-.77-4.84-3-13.5-7-20.22a1.42,1.42,0,0,0,0-.29C80.68,7.2,73.61,3,66.49,5.33c-3.89,1.26-6.81,5-9.52,7.84-4.71,4.89-9.14,10-13.46,15.23-7.46,9-14.61,18.28-21.35,27.77C17.85,62.26,13.8,69,12.52,76.35c-.54,1.72-1.08,3.43-1.6,5.15a39.88,39.88,0,0,0-.61,9.4C17,86.06,25.16,82,29.42,78.09c7.78-7.18,12.85-14.79,18-23.57A30,30,0,0,1,47.78,50,24.79,24.79,0,0,1,48,42.81c.16-3.22.38-6.45.63-9.68,0-.59,1.12-.73,1.09-.06,0,1.35-.07,2.71-.1,4.07A36.71,36.71,0,0,1,64,19.52a39.55,39.55,0,0,0-7.27,9.29c-3.86,6.53-3.51,13.51-6.34,20.28a1.11,1.11,0,0,0,1.73,1.24c6.52-6,16.92-6.5,22.34,1.09a.93.93,0,0,0,.54.37,19.74,19.74,0,0,1,2.07,4.68c2.34,7.76-1.89,18.71-7,25.67-.4,1.82-5.21,6.39-6,7.13a48.57,48.57,0,0,1-7.49,5.33,1.12,1.12,0,0,0-.92.56,0,0,0,0,1,0,0s0,0,0,0a1.17,1.17,0,0,0-.14.35c-1.15,6.33,1,14.06,7,17.42,7.07,3.94,13.37-3.09,15.84-8.76,2.38-5.47,3.51-11.63,5-17.37a165.38,165.38,0,0,0,4.06-20.35C88.29,60.21,89.3,54.1,89.59,48Z"/><path class="cls-2" d="M178.4,53.34c1.19,10.08,3.4,19.81,2.64,30a17.43,17.43,0,0,1-1.48,5.67,25.91,25.91,0,0,1-2.82,6.52,42.84,42.84,0,0,1-18.31,16.13c-4.91,2.32-13.65,5.48-17.52-.51-2.28-3.5-1.88-6.47,0-8.91,0-.45.11-.87.16-1.29,9.81-10.14,17.66-25.91,18.88-35.33s-1.35-21.64-5.16-32c4.07.37,10.56.85,13.27,1.68C175.93,37.7,177.6,46.71,178.4,53.34Z"/><path d="M162.78,123.77c.1,6.34.83,13-.52,18.72-1.81,7.55-6.66,13.65-12.08,19.06a42.83,42.83,0,0,1-9.24,7c7.89,4.28,2,14.65-5,19.64a82.35,82.35,0,0,1-15.2,8.42,2.57,2.57,0,0,0-.45.2c-.59.24-1.16.51-1.73.75-.33.61-.65,1.26-.94,1.9a11.42,11.42,0,0,1,.19,1.36c-1.22,3.94-1.44,9.37-1.56,10.91-1.34,18.52-6,37.25-10.43,55.27-5.12,21.05-11.44,41.88-17.47,62.71-1.32,4.57-2.61,9.17-3.93,13.75-2,6.47-4.06,12.92-6.25,19.35-4.78,14-11,27.64-17.25,41.81-4.55,8.71-8.2,18.44-13.88,26.55a125.06,125.06,0,0,1-18.16,21c-4.41,4-10.66,6-16.1,4.8a1.62,1.62,0,0,0-.19-.17,8.58,8.58,0,0,1-1.13-.18,12.82,12.82,0,0,1-5.07-3.08C-4,440.1.39,419.12,4.92,403.15a.81.81,0,0,0,0-.43c5.73-16.48,13.6-32.54,20.57-48.34C36.66,329.2,46.75,303.86,56.07,278a275.45,275.45,0,0,0,11.81-42.61c1.67-8.93,5.84-22.47,1.6-31.1,0,0,0-.1,0-.15-7.52-1.6-14.61-4.87-18.76-10.66-5.84-8.13-.87-17.16,6.57-21.73-17.83-1-34.95-9.23-43.47-26.16A133.34,133.34,0,0,1,8.1,132.64l1.46-.5a65.5,65.5,0,0,0,14.21,22.91c13.08,13.33,36.74,18.49,56.06,14.19a68.76,68.76,0,0,1-21,2.57c-6,4.48-11.31,12-6.2,18.31,2.55,4.52,7.89,8.3,13.39,10.31,7.89,2.85,17.1,2.14,25.31,1.42a48.58,48.58,0,0,0,6.14-.9A64,64,0,0,0,117,195.5c6.85-3.15,30.89-13.95,19-24.51-9.24,3.85-19.63,4.72-30.36,4.45,1.06-.12,2-.31,2.62-.38A157.37,157.37,0,0,0,124,172.32a56.88,56.88,0,0,0,21.51-9.56c6.37-4.67,9.78-12,12.85-18.95a.73.73,0,0,0,0-.32,51.6,51.6,0,0,0,3.12-19.71ZM111.2,226.16a151.63,151.63,0,0,0,2.43-26.8,112.87,112.87,0,0,1-27.48,5.75,61,61,0,0,1-12.52-.3c2,3.66,1.75,8.14,1.25,12.35a251.33,251.33,0,0,1-5.39,30.59C63.67,271.35,54,293.81,45.33,316.5s-18.4,44.82-27.78,67.09c-2.19,5.14-5.45,12.66-8.14,20.83-.06.17-.13.32-.18.49-3.37,10.32-6.62,21.61-6.08,32.53.4,8.25,5.61,20,16.49,16,7.83-2.84,13-10,17.42-16.62,0,0,0,0,0-.05a93.63,93.63,0,0,0,6.41-9,229.16,229.16,0,0,0,17.25-33.7c9.47-22.85,17.79-44.17,24.34-67.93,6.61-24.06,13.28-49.69,20.29-73.63A256.71,256.71,0,0,0,111.2,226.16Z"/><path class="cls-2" d="M161.55,123.78a51.6,51.6,0,0,1-3.12,19.71.73.73,0,0,1,0,.32c-3.07,6.93-6.48,14.28-12.85,18.95A56.88,56.88,0,0,1,124,172.32a157.37,157.37,0,0,1-15.74,2.74c-.57.07-1.56.26-2.62.38,10.73.27,21.12-.6,30.36-4.45,11.87,10.56-12.17,21.36-19,24.51A64,64,0,0,1,97.5,201a48.58,48.58,0,0,1-6.14.9c-8.21.72-17.42,1.43-25.31-1.42-5.5-2-10.84-5.79-13.39-10.31-5.11-6.33.16-13.83,6.2-18.31a68.76,68.76,0,0,0,21-2.57c-19.32,4.3-43-.86-56.06-14.19A65.5,65.5,0,0,1,9.56,132.14c-1.06-2.82-2-5.69-2.74-8.59-2.12-7.9-5.87-19.31.55-26.28,2.33-2.55,5.22-4.47,8-6.55,7.14-5.4,14.4-10.09,20.76-16.46,6.88-6.9,13.43-22.45,23-25.15,20.27-5.77,14.21,20.64,9.76,29.55-3.26,6.59-8.68,11.27-14.85,15v.1c-4.12,2.31-8.28,4.63-10.72,8.71-.64,1.1,1,1.82,1.72.93a28.65,28.65,0,0,1,6.08-5.31c.11,7,2.83,13.7,8,16.89a7.88,7.88,0,0,0,7.59,2.78,19.39,19.39,0,0,0,6.26-2.19A17.56,17.56,0,0,0,80,109.13a13.16,13.16,0,0,1,1-2.36,1.13,1.13,0,0,1,1.42-.62c17.95,6.6,27.79,26,29,44.5,1.8-11.67.08-21.88-6.38-32a33.09,33.09,0,0,0-8.49-8.76,26.8,26.8,0,0,0,9.26-3.7,17.07,17.07,0,0,0,4.34-4.11c7.78,11.62,17.58,10.09,26.44,3.08-.14,5.67,2.08,11.51,8.65,12.19a26.6,26.6,0,0,0,16.48-3.79,11.43,11.43,0,0,0-.4,2.8c0,.9,0,1.8,0,2.68Q161.49,121.41,161.55,123.78Z"/><path class="cls-2" d="M149.51,28.37c5.47,10.71,9.9,23.18,8.32,35.17a1,1,0,0,1-.38.66,20.41,20.41,0,0,1-1.1,4.26,57,57,0,0,1-2.85,6.2A65.72,65.72,0,0,1,148.27,85c-4.24,7-9.79,15.83-17.19,20-5.25,3-11.68,3.5-15.81-1.56-2.56-3.13-3.23-6.47-.77-8.92,1.1-2.39,2-4.8,2.92-6.9a249.49,249.49,0,0,0,9.47-28.4c3.63-13.23,2.88-24.47-1.83-35.14A38.64,38.64,0,0,0,130.85,21c3.58-2.27,6.48-2.9,8.88-2.49A9.62,9.62,0,0,1,146.92,23,31.83,31.83,0,0,1,149.51,28.37Z"/><path class="cls-2" d="M121.85,24.27c5.94,10.56,6.38,20,2.94,31.46-1.12,3.72-2.42,7.38-3.82,11-2,5.38-4.17,10.68-5.86,15.79-2.62,8-6.51,19.77-15.62,23a12.41,12.41,0,0,1-9.5-.29,6.13,6.13,0,0,1-3.75-3.72l0-.07a7.32,7.32,0,0,1-.36-1,1.62,1.62,0,0,0-.06-.17c-.13-.49-.26-1-.36-1.62a2.1,2.1,0,0,0-.33-.88A52.09,52.09,0,0,0,87.25,85.4a1.56,1.56,0,0,0-.12-.64c.13-.78.27-1.6.41-2.36,3.46-19.1,10-39.9,3-58.76a69,69,0,0,0-3.82-8.52c2.87-2.49,5.58-5.16,8.45-7.68a12.22,12.22,0,0,1,6.34-3.3c1.23-.64,2.76-.27,4.41.76a15.49,15.49,0,0,1,5.21,4.59A102.49,102.49,0,0,1,121.85,24.27Z"/><path class="cls-2" d="M89.84,34.58A46,46,0,0,1,89.59,48c-.29,6.1-1.3,12.21-2.12,18.49a165.38,165.38,0,0,1-4.06,20.35c-1.51,5.74-2.64,11.9-5,17.37-2.47,5.67-8.77,12.7-15.84,8.76-6-3.36-8.19-11.09-7-17.42a1.17,1.17,0,0,1,.14-.35s0,0,0,0a0,0,0,0,0,0,0,1.12,1.12,0,0,1,.92-.56,48.57,48.57,0,0,0,7.49-5.33c.81-.74,5.62-5.31,6-7.13,5.1-7,9.33-17.91,7-25.67A19.74,19.74,0,0,0,75,51.79a.93.93,0,0,1-.54-.37C69,43.83,58.64,44.34,52.12,50.33a1.11,1.11,0,0,1-1.73-1.24c2.83-6.77,2.48-13.75,6.34-20.28A39.55,39.55,0,0,1,64,19.52,36.71,36.71,0,0,0,49.66,37.14c0-1.36.05-2.72.1-4.07,0-.67-1.06-.53-1.09.06-.25,3.23-.47,6.46-.63,9.68A24.79,24.79,0,0,0,47.78,50a30,30,0,0,0-.33,4.53c-5.18,8.78-10.25,16.39-18,23.57C25.16,82,17,86.06,10.31,90.9a39.88,39.88,0,0,1,.61-9.4c.52-1.72,1.06-3.43,1.6-5.15C13.8,69,17.85,62.26,22.16,56.17,28.9,46.68,36.05,37.38,43.51,28.4,47.83,23.19,52.26,18.06,57,13.17c2.71-2.82,5.63-6.58,9.52-7.84C73.61,3,80.68,7.2,82.85,14.07a1.42,1.42,0,0,1,0,.29C86.81,21.08,89.07,29.74,89.84,34.58Z"/></g></g></svg>